<svg width="242" height="140" viewBox="0 0 242 140" fill="none" xmlns="http://www.w3.org/2000/svg">
<path d="M0 8C0 3.58172 3.58172 0 8 0H234C238.418 0 242 3.58172 242 8V140H0V8Z" fill="#DDE3C2"/>
<g clip-path="url(#clip0_141_6038)">
<path d="M191 140H51V1.52588e-05H191V140Z" fill="#DDE3C2"/>
<path d="M59.989 116.668C76.0668 116.668 92.1446 116.668 108.222 116.668C124.218 116.668 140.214 116.668 156.21 116.668C165.233 116.668 174.256 116.668 183.28 116.668C183.505 116.668 183.505 116.318 183.28 116.318C167.202 116.318 151.124 116.318 135.046 116.318C119.05 116.318 103.055 116.318 87.0587 116.318C78.0355 116.318 69.0123 116.318 59.989 116.318C59.7638 116.318 59.7634 116.668 59.989 116.668Z" fill="#1B1C1D"/>
<path d="M78.2231 121.822C79.8103 123.419 80.9603 125.189 84.4441 126.951C96.978 133.293 106.675 133.379 121.037 133.491C135.398 133.603 156.423 128.102 165.805 120.005C159.624 120.356 153.442 120.707 147.261 121.058C124.096 122.374 100.796 123.689 77.6676 122.056" fill="#CDD3B1"/>
<path d="M132.801 35.3359C138.507 29.8591 145.352 21.9595 149.962 15.5324" stroke="#3D907E" stroke-width="1.33333" stroke-miterlimit="10" stroke-linecap="round" stroke-linejoin="round"/>
<path d="M144.375 22.5664L144.677 16.6181" stroke="#3D907E" stroke-width="1.33333" stroke-miterlimit="10" stroke-linecap="round" stroke-linejoin="round"/>
<path d="M148.093 23.8513C144.911 24.9027 145.569 24.5684 142.276 25.1953" stroke="#3D907E" stroke-width="1.33333" stroke-miterlimit="10" stroke-linecap="round" stroke-linejoin="round"/>
<path d="M150.44 13.7148C149.68 13.4919 148.882 13.9276 148.659 14.6881C148.436 15.4486 148.872 16.246 149.632 16.4689C150.393 16.6921 151.19 16.2564 151.413 15.4959C151.636 14.7354 151.201 13.938 150.44 13.7148Z" fill="#F8A264"/>
<path d="M148.371 22.3476C147.565 22.1112 146.72 22.573 146.484 23.3788C146.248 24.1849 146.709 25.03 147.515 25.2663C148.321 25.5026 149.166 25.0409 149.403 24.235C149.639 23.4289 149.177 22.5842 148.371 22.3476Z" fill="#F8A264"/>
<path d="M145.453 15.3163C144.865 14.9492 144.09 15.1287 143.724 15.7167C143.357 16.305 143.536 17.0794 144.124 17.4462C144.713 17.8133 145.487 17.6338 145.854 17.0456C146.221 16.4573 146.041 15.6831 145.453 15.3163Z" fill="#F8A264"/>
<path d="M148.037 66.4221C150.138 65.3068 152.73 65.1643 154.94 66.0429C155.382 66.2185 155.817 66.438 156.153 66.7737C156.489 67.1095 156.718 67.5779 156.676 68.0511C153.753 68.7267 150.57 68.2028 148.018 66.6251" fill="#3D907E"/>
<path d="M151.311 60.2449C148.878 63.2958 147.084 66.8185 146.057 70.5839C145.998 70.8015 146.335 70.8944 146.395 70.6769C147.405 66.9727 149.164 63.4946 151.559 60.4924C151.697 60.318 151.451 60.0688 151.311 60.2449Z" fill="#3D907E"/>
<path d="M151.865 56.1426C151.685 57.6168 151.864 58.8518 152.266 58.9008C152.667 58.9498 153.138 57.7943 153.318 56.3201C153.498 54.8456 153.319 53.6108 152.917 53.5618C152.516 53.5128 152.045 54.6684 151.865 56.1426Z" fill="white"/>
<path d="M153.298 56.3115C152.405 57.4981 151.943 58.6573 152.266 58.9004C152.588 59.1431 153.574 58.3782 154.467 57.1915C155.36 56.0046 155.822 54.8457 155.5 54.6027C155.177 54.3596 154.191 55.1246 153.298 56.3115Z" fill="white"/>
<path d="M154.454 57.1746C153.087 57.7559 152.107 58.5284 152.266 58.9005C152.424 59.2724 153.66 59.1027 155.027 58.5214C156.394 57.9402 157.373 57.1673 157.215 56.7955C157.057 56.4237 155.821 56.5934 154.454 57.1746Z" fill="white"/>
<path d="M155.024 58.5005C153.549 58.3205 152.315 58.5 152.266 58.9012C152.217 59.3022 153.372 59.7734 154.846 59.9534C156.321 60.1335 157.556 59.9543 157.604 59.553C157.653 59.1518 156.498 58.6806 155.024 58.5005Z" fill="white"/>
<path d="M154.855 59.9335C153.668 59.0405 152.509 58.5783 152.266 58.9014C152.023 59.2242 152.788 60.2101 153.974 61.103C155.161 61.996 156.32 62.4582 156.563 62.1354C156.806 61.8123 156.041 60.8267 154.855 59.9335Z" fill="white"/>
<path d="M153.992 61.0891C153.41 59.7224 152.637 58.7427 152.266 58.9009C151.894 59.0588 152.063 60.2953 152.644 61.662C153.226 63.0286 153.999 64.0086 154.37 63.8504C154.742 63.6922 154.573 62.456 153.992 61.0891Z" fill="white"/>
<path d="M152.666 61.6599C152.846 60.1857 152.667 58.9509 152.266 58.9019C151.864 58.8529 151.393 60.0082 151.213 61.4827C151.033 62.9569 151.213 64.1917 151.614 64.2407C152.015 64.2897 152.486 63.1341 152.666 61.6599Z" fill="white"/>
<path d="M151.233 61.4884C152.126 60.3015 152.588 59.1423 152.266 58.8995C151.942 58.6565 150.957 59.4214 150.064 60.6084C149.171 61.795 148.708 62.9542 149.032 63.1972C149.354 63.44 150.34 62.675 151.233 61.4884Z" fill="white"/>
<path d="M150.077 60.627C151.444 60.0458 152.424 59.273 152.266 58.9011C152.107 58.529 150.871 58.6987 149.504 59.28C148.138 59.8612 147.158 60.634 147.316 61.0059C147.474 61.378 148.71 61.208 150.077 60.627Z" fill="white"/>
<path d="M149.507 59.3011C150.982 59.4812 152.217 59.3017 152.266 58.9007C152.315 58.4995 151.159 58.0283 149.685 57.8482C148.21 57.6682 146.976 57.8477 146.927 58.2486C146.878 58.6499 148.033 59.1211 149.507 59.3011Z" fill="white"/>
<path d="M149.677 57.8687C150.863 58.7616 152.023 59.2239 152.266 58.901C152.509 58.5779 151.743 57.5923 150.557 56.6991C149.37 55.8062 148.211 55.3439 147.968 55.667C147.725 55.9899 148.49 56.9757 149.677 57.8687Z" fill="white"/>
<path d="M150.54 56.7128C151.121 58.0795 151.894 59.0592 152.266 58.9013C152.637 58.7431 152.468 57.5069 151.887 56.1399C151.305 54.7732 150.533 53.7935 150.161 53.9514C149.789 54.1096 149.958 55.3458 150.54 56.7128Z" fill="white"/>
<path d="M151.324 59.0335C151.398 59.5534 151.879 59.9155 152.399 59.8421C152.919 59.7688 153.28 59.2877 153.207 58.7677C153.134 58.2478 152.653 57.8857 152.133 57.9591C151.613 58.0327 151.251 58.5138 151.324 59.0335Z" fill="#F8A264"/>
<path d="M147.485 42.9537C147.384 41.3398 147.605 39.7063 148.132 38.1775C148.358 37.5214 148.658 36.8595 149.194 36.4188C149.73 35.9781 150.557 35.8255 151.119 36.2317C151.592 36.5733 151.764 37.221 151.682 37.7983C151.601 38.376 151.309 38.9001 151.006 39.3985C149.943 41.1483 148.682 42.7678 147.423 44.3828" fill="#F8A264"/>
<path d="M156.37 44.0048C156.231 43.4383 155.695 43.0363 155.13 42.8949C154.564 42.7532 153.968 42.8268 153.393 42.9201C151.372 43.2477 149.397 43.8085 147.427 44.3679L148.775 44.847C150.233 45.5473 151.83 45.9561 153.444 46.0423C154.137 46.0793 154.864 46.0499 155.474 45.7189C156.083 45.3877 156.535 44.6787 156.37 44.0048Z" fill="#F8A264"/>
<path d="M147.423 44.3828C148.092 43.4241 149.074 42.1843 149.77 41.2023C150.466 40.2206 151.352 39.3476 152.47 38.9032C153.034 38.6789 153.708 38.6036 154.227 38.9183C155.029 39.4039 155.084 40.6247 154.583 41.4176C154.082 42.2103 153.205 42.6712 152.36 43.0769C150.714 43.8671 149.247 44.3257 147.423 44.3828Z" fill="#F8A264"/>
<path d="M150.637 44.6857C150.576 44.5572 150.508 44.4077 150.124 44.3164C149.358 44.1347 149.044 44.0932 148.371 44.0322C148.918 43.9907 149.519 43.7228 150.025 43.5114C150.243 43.4204 150.545 43.0043 150.497 42.7725C150.447 42.5322 150.128 42.4771 149.885 42.5053C149.131 42.593 148.417 42.9808 147.933 43.5646C148.259 42.9542 148.357 42.2248 148.204 41.5494C148.166 41.3839 148.093 41.1994 147.931 41.1473C147.801 41.1051 147.654 41.1709 147.564 41.2745C147.475 41.3781 147.431 41.5127 147.394 41.6449C147.149 42.5356 147.165 43.496 147.438 44.3783C148.365 44.8845 148.589 45.0536 150.167 45.4106C150.281 45.4364 150.456 45.4003 150.595 45.2051C150.677 45.0895 150.697 44.814 150.637 44.6857Z" fill="#3D907E"/>
<path d="M133.879 61.3438C134.15 59.8326 135.569 52.9835 142.687 47.3278C144.878 45.5868 147.684 43.9566 148.454 44.0596" stroke="#3D907E" stroke-width="1.33333" stroke-miterlimit="10" stroke-linecap="round" stroke-linejoin="round"/>
<path d="M143.8 46.4472C145.576 50.5408 150.273 53.0765 154.884 52.4314C153.54 48.1894 148.703 45.7273 143.8 46.4472Z" fill="#3D907E"/>
<path d="M105.11 55.0898C102.115 47.7692 97.2865 38.4987 93.005 31.8484" stroke="#3D907E" stroke-width="1.33333" stroke-miterlimit="10" stroke-linecap="round" stroke-linejoin="round"/>
<path d="M97.4928 39.6328L92.072 37.1646" stroke="#3D907E" stroke-width="1.33333" stroke-miterlimit="10" stroke-linecap="round" stroke-linejoin="round"/>
<path d="M100.053 36.6473C99.86 39.9935 99.7914 39.2583 99.1633 42.5508" stroke="#3D907E" stroke-width="1.33333" stroke-miterlimit="10" stroke-linecap="round" stroke-linejoin="round"/>
<path d="M91.4897 30.7376C91.0025 31.3629 91.1145 32.2645 91.7397 32.7517C92.3647 33.2386 93.2666 33.1269 93.7535 32.5016C94.2407 31.8764 94.1287 30.9748 93.5037 30.4876C92.8785 30.0007 91.9769 30.1124 91.4897 30.7376Z" fill="#F8A264"/>
<path d="M98.7571 35.8336C98.2407 36.4961 98.3595 37.4518 99.0219 37.9678C99.6844 38.4841 100.64 38.3654 101.156 37.7029C101.673 37.0404 101.554 36.0848 100.891 35.5688C100.229 35.0524 99.2734 35.1709 98.7571 35.8336Z" fill="#F8A264"/>
<path d="M91.1461 35.9617C90.5886 36.3736 90.4704 37.1596 90.8826 37.7173C91.2947 38.2748 92.0807 38.3927 92.6382 37.9808C93.1957 37.5686 93.3138 36.7827 92.9017 36.2252C92.4895 35.6674 91.7035 35.5496 91.1461 35.9617Z" fill="#F8A264"/>
<path d="M150.174 101.227C157.408 98.0292 166.541 92.9445 173.069 88.4793" stroke="#3D907E" stroke-width="1.33333" stroke-miterlimit="10" stroke-linecap="round" stroke-linejoin="round"/>
<path d="M165.415 93.1797L167.731 87.6925" stroke="#3D907E" stroke-width="1.33333" stroke-miterlimit="10" stroke-linecap="round" stroke-linejoin="round"/>
<path d="M168.47 95.6562C165.12 95.5568 165.853 95.4678 162.544 94.9316" stroke="#3D907E" stroke-width="1.33333" stroke-miterlimit="10" stroke-linecap="round" stroke-linejoin="round"/>
<path d="M174.14 86.9322C173.501 86.4627 172.603 86.5996 172.133 87.2383C171.664 87.8767 171.801 88.7749 172.439 89.2445C173.078 89.714 173.976 89.5768 174.446 88.9384C174.915 88.3 174.778 87.4018 174.14 86.9322Z" fill="#F8A264"/>
<path d="M169.245 94.3397C168.569 93.8422 167.617 93.9875 167.119 94.664C166.622 95.3407 166.767 96.2925 167.443 96.7903C168.12 97.2879 169.072 97.1426 169.569 96.4658C170.067 95.7893 169.922 94.8373 169.245 94.3397Z" fill="#F8A264"/>
<path d="M168.905 86.7362C168.478 86.1905 167.689 86.0945 167.143 86.5218C166.597 86.9493 166.501 87.7383 166.928 88.2841C167.356 88.8301 168.145 88.9261 168.691 88.4985C169.236 88.0713 169.332 87.2822 168.905 86.7362Z" fill="#F8A264"/>
<path d="M92.8749 91.3164C86.9218 86.1087 78.4566 79.977 71.6525 75.9441" stroke="#3D907E" stroke-width="1.33333" stroke-miterlimit="10" stroke-linecap="round" stroke-linejoin="round"/>
<path d="M79.1473 80.9002L73.1953 81.1172" stroke="#3D907E" stroke-width="1.33333" stroke-miterlimit="10" stroke-linecap="round" stroke-linejoin="round"/>
<path d="M69.7992 75.6259C69.6432 76.4029 70.1466 77.1595 70.9236 77.3154C71.7007 77.4714 72.4571 76.9679 72.6131 76.1909C72.7691 75.4139 72.2657 74.6576 71.4887 74.5017C70.7117 74.3454 69.9552 74.8489 69.7992 75.6259Z" fill="#F8A264"/>
<path d="M71.83 80.4565C71.5156 81.0745 71.7617 81.8302 72.3796 82.1446C72.9976 82.4588 73.7533 82.2127 74.0677 81.595C74.3821 80.9771 74.1359 80.2213 73.518 79.9069C72.9001 79.5924 72.1443 79.8386 71.83 80.4565Z" fill="#F8A264"/>
<path d="M117.252 20.6675C116.025 20.1895 114.894 19.4668 113.945 18.554C113.537 18.1623 113.151 17.7138 113.009 17.1666C112.867 16.6198 113.037 15.9565 113.53 15.6801C113.945 15.4477 114.482 15.5429 114.881 15.8008C115.279 16.059 115.567 16.454 115.831 16.8486C116.76 18.2332 117.525 19.7202 118.287 21.2031" fill="#F8A264"/>
<path d="M121.07 14.4594C120.604 14.3681 120.123 14.6262 119.825 14.9958C119.527 15.3654 119.377 15.8305 119.249 16.2878C118.799 17.8933 118.537 19.5447 118.275 21.1914L119.091 20.3595C120.108 19.5223 120.957 18.4827 121.573 17.319C121.838 16.8198 122.065 16.2729 122.029 15.709C121.994 15.1451 121.625 14.5683 121.07 14.4594Z" fill="#F8A264"/>
<path d="M118.287 21.2031C117.808 20.3802 117.228 19.23 116.741 18.3796C116.254 17.529 115.912 16.5756 115.967 15.5972C115.994 15.1033 116.169 14.5803 116.58 14.3042C117.213 13.8778 118.134 14.2552 118.548 14.8967C118.962 15.5384 119.002 16.3446 119.013 17.1084C119.033 18.5949 118.869 19.8353 118.287 21.2031Z" fill="#F8A264"/>
<path d="M119.611 18.9338C119.496 18.9346 119.362 18.9329 119.163 19.186C118.766 19.6892 118.628 19.9073 118.353 20.3833C118.509 19.9656 118.517 19.4294 118.534 18.9836C118.541 18.7912 118.337 18.4253 118.15 18.3816C117.955 18.3362 117.805 18.5527 117.743 18.7425C117.549 19.3291 117.591 19.9899 117.857 20.5474C117.518 20.0972 117.012 19.7746 116.461 19.657C116.325 19.6282 116.164 19.6189 116.07 19.7206C115.994 19.8023 115.993 19.9334 116.038 20.035C116.084 20.1369 116.169 20.2156 116.254 20.2878C116.828 20.7739 117.543 21.0914 118.289 21.1914C118.98 20.6798 119.182 20.5726 119.986 19.5288C120.044 19.4535 120.077 19.3118 119.981 19.1421C119.923 19.0416 119.727 18.9327 119.611 18.9338Z" fill="#3D907E"/>
<path d="M112.442 46.8203C111.646 37.7799 108.545 29.2302 103.627 21.9781" stroke="#3D907E" stroke-miterlimit="10"/>
<path d="M101.213 18.6973C101.691 26.9002 105.685 27.4081 108.038 30.4207C109.322 32.0945 108.742 32.3793 108.429 30.2493C107.912 26.9187 108.974 21.2182 101.213 18.6973Z" fill="#3D907E"/>
<path d="M110.005 34.9727C109.082 32.0523 104.661 27.6325 99.0634 28.6102C99.2232 29.6378 100.361 30.6271 101.331 31.1456C105.713 33.5018 108.878 31.7577 110.005 34.9727Z" fill="#3D907E"/>
<path d="M110.005 34.9727C109.017 31.8655 109.187 25.188 111.843 21.1317C113.458 22.57 114.295 26.8795 110.476 31.7655C109.621 32.8491 109.85 34.5311 110.005 34.9727Z" fill="#3D907E"/>
<path d="M111.589 40.918C110.874 37.4706 106.778 33.0066 101.46 33.321C101.464 33.9799 102.018 34.8061 102.469 35.2978C105.667 38.6452 110.832 37.4605 111.589 40.918Z" fill="#3D907E"/>
<path d="M111.589 40.918C110.977 37.9911 111.829 31.2146 115.026 27.3889C115.406 27.8372 115.891 28.9275 115.949 30.1693C116.328 35.8038 110.81 37.3631 111.589 40.918Z" fill="#3D907E"/>
<path d="M100.386 86.8906C95.0435 80.3974 88.1958 75.4862 80.64 72.518" stroke="#3D907E" stroke-miterlimit="10"/>
<path d="M77.0759 71.2759C81.7364 77.2956 85.0555 75.5924 88.4315 76.6631C90.2893 77.2702 89.995 77.7915 88.6409 76.3271C86.5011 74.0524 84.3281 69.139 77.0759 71.2759Z" fill="#3D907E"/>
<path d="M92.3204 79.1126C90.0855 77.3637 84.3914 76.3006 80.6251 79.9792C81.2854 80.6809 82.6733 80.841 83.6864 80.7293C88.2697 80.236 89.775 77.2456 92.3204 79.1126Z" fill="#3D907E"/>
<path d="M92.3205 79.1133C89.9377 77.2558 86.5715 72.0626 86.4772 67.5714C88.4649 67.8251 91.3615 70.6805 91.0009 76.4155C90.9143 77.6914 91.9708 78.8568 92.3205 79.1133Z" fill="#3D907E"/>
<path d="M96.6444 82.8268C94.2924 80.5663 88.8237 79.2991 84.9233 82.3245C85.2719 82.8257 86.1279 83.1673 86.7302 83.3067C90.9271 84.1909 94.2549 80.5806 96.6444 82.8268Z" fill="#3D907E"/>
<path d="M96.6445 82.8281C94.6433 80.9118 91.7464 75.2858 92.1872 70.6873C92.7116 70.8312 93.6535 71.4106 94.3485 72.3292C97.5884 76.4377 94.1875 80.519 96.6445 82.8281Z" fill="#3D907E"/>
<path d="M148.541 87.6172C153.883 81.124 160.731 76.213 168.286 73.2448" stroke="#3D907E" stroke-miterlimit="10"/>
<path d="M171.85 71.9986C167.19 78.0183 163.871 76.3151 160.495 77.3858C158.637 77.9928 158.931 78.5142 160.285 77.0498C162.425 74.7751 164.598 69.8616 171.85 71.9986Z" fill="#3D907E"/>
<path d="M156.606 79.8392C158.841 78.0903 164.535 77.0274 168.301 80.7058C167.641 81.4074 166.253 81.5676 165.24 81.4559C160.657 80.9625 159.151 77.9721 156.606 79.8392Z" fill="#3D907E"/>
<path d="M156.606 79.8398C158.989 77.9823 162.355 72.7891 162.449 68.2979C160.462 68.5519 157.565 71.4071 157.926 77.142C158.012 78.418 156.956 79.5834 156.606 79.8398Z" fill="#3D907E"/>
<path d="M152.282 83.5533C154.634 81.2929 160.103 80.0257 164.003 83.051C163.654 83.5522 162.798 83.8938 162.196 84.0333C157.999 84.9175 154.671 81.3072 152.282 83.5533Z" fill="#3D907E"/>
<path d="M152.282 83.5508C154.283 81.6345 157.18 76.0084 156.739 71.41C156.215 71.5539 155.273 72.1335 154.578 73.0519C151.338 77.1603 154.739 81.2416 152.282 83.5508Z" fill="#3D907E"/>
<path d="M102.267 43.9974C101.526 46.2131 101.415 48.1722 102.018 48.3738C102.62 48.5752 103.709 46.9425 104.45 44.7271C105.19 42.5117 105.302 40.5526 104.699 40.351C104.096 40.1494 103.007 41.7821 102.267 43.9974Z" fill="white"/>
<path d="M104.421 44.7083C102.673 46.2567 101.596 47.8978 102.018 48.3738C102.439 48.8495 104.198 47.9801 105.947 46.4317C107.696 44.8833 108.772 43.2425 108.351 42.7665C107.93 42.2905 106.17 43.1599 104.421 44.7083Z" fill="white"/>
<path d="M105.932 46.4005C103.643 46.867 101.891 47.7501 102.018 48.3731C102.145 48.9958 104.103 49.1227 106.392 48.6562C108.681 48.1897 110.433 47.3066 110.306 46.6839C110.179 46.0609 108.221 45.9341 105.932 46.4005Z" fill="white"/>
<path d="M106.394 48.6247C104.178 47.8844 102.219 47.7727 102.018 48.3758C101.816 48.9786 103.449 50.0676 105.664 50.8079C107.879 51.5485 109.839 51.6599 110.04 51.0571C110.242 50.4542 108.609 49.3653 106.394 48.6247Z" fill="white"/>
<path d="M105.683 50.7799C104.135 49.0307 102.493 47.9547 102.018 48.3761C101.542 48.7972 102.411 50.5567 103.96 52.3056C105.508 54.0545 107.149 55.1308 107.625 54.7094C108.101 54.288 107.231 52.5288 105.683 50.7799Z" fill="white"/>
<path d="M103.99 52.2873C103.523 49.9983 102.64 48.2458 102.018 48.3729C101.395 48.4998 101.268 50.4581 101.734 52.7468C102.201 55.0358 103.084 56.7883 103.707 56.6615C104.33 56.5344 104.456 54.5761 103.99 52.2873Z" fill="white"/>
<path d="M101.769 52.7508C102.509 50.5354 102.621 48.576 102.018 48.3747C101.415 48.1731 100.326 49.8058 99.5853 52.0211C98.845 54.2365 98.7333 56.1959 99.3362 56.3972C99.939 56.5988 101.028 54.9662 101.769 52.7508Z" fill="white"/>
<path d="M99.6138 52.0412C101.363 50.4928 102.439 48.8517 102.018 48.376C101.596 47.9 99.8367 48.7694 98.0878 50.3178C96.3389 51.8662 95.2626 53.5073 95.684 53.983C96.1054 54.459 97.8647 53.5896 99.6138 52.0412Z" fill="white"/>
<path d="M98.1033 50.3476C100.392 49.8811 102.145 48.998 102.018 48.3753C101.891 47.7523 99.9323 47.6255 97.6436 48.0919C95.3546 48.5584 93.602 49.4415 93.7292 50.0645C93.856 50.6873 95.8143 50.8141 98.1033 50.3476Z" fill="white"/>
<path d="M97.6413 48.1244C99.8569 48.8647 101.816 48.9764 102.018 48.3736C102.219 47.7704 100.587 46.6815 98.3709 45.9412C96.1556 45.2009 94.1964 45.0892 93.9948 45.692C93.7935 46.2948 95.4259 47.3841 97.6413 48.1244Z" fill="white"/>
<path d="M98.3522 45.9695C99.9006 47.7187 101.542 48.7947 102.018 48.3736C102.493 47.9522 101.624 46.1927 100.076 44.4438C98.5275 42.6949 96.8864 41.6186 96.4104 42.04C95.9344 42.4614 96.8038 44.2206 98.3522 45.9695Z" fill="white"/>
<path d="M100.045 44.4578C100.511 46.7468 101.395 48.4993 102.018 48.3724C102.64 48.2453 102.767 46.287 102.301 43.9983C101.834 41.7093 100.951 39.9568 100.328 40.0839C99.7054 40.2107 99.5788 42.169 100.045 44.4578Z" fill="white"/>
<path d="M100.525 48.2849C100.475 49.1092 101.103 49.8182 101.927 49.8683C102.751 49.9184 103.46 49.2909 103.51 48.4666C103.56 47.6423 102.933 46.9333 102.108 46.8832C101.284 46.8331 100.575 47.4606 100.525 48.2849Z" fill="#F8A264"/>
<path d="M80.2312 86.5602C79.4909 88.7755 79.3794 90.735 79.9823 90.9363C80.5851 91.1379 81.674 89.5052 82.4143 87.2899C83.1549 85.0745 83.2664 83.1151 82.6635 82.9137C82.0607 82.7121 80.9718 84.3448 80.2312 86.5602Z" fill="white"/>
<path d="M82.386 87.271C80.6372 88.8194 79.5608 90.4601 79.9822 90.9361C80.4036 91.4121 82.1629 90.5427 83.9118 88.9944C85.6606 87.446 86.737 85.8049 86.3156 85.3289C85.8942 84.8532 84.1349 85.7226 82.386 87.271Z" fill="white"/>
<path d="M83.8966 88.9632C81.6076 89.4297 79.8551 90.3128 79.9822 90.9355C80.109 91.5585 82.0674 91.6851 84.3564 91.2186C86.6451 90.7521 88.3976 89.8693 88.2708 89.2463C88.1436 88.6236 86.1853 88.4967 83.8966 88.9632Z" fill="white"/>
<path d="M84.3584 91.1834C82.143 90.4428 80.1836 90.3314 79.9823 90.9342C79.7807 91.5371 81.4134 92.626 83.6287 93.3666C85.8441 94.1069 87.8035 94.2186 88.0049 93.6155C88.2065 93.0127 86.5738 91.9237 84.3584 91.1834Z" fill="white"/>
<path d="M83.6474 93.3382C82.099 91.5893 80.4579 90.513 79.9822 90.9344C79.5062 91.3558 80.3756 93.115 81.924 94.8642C83.4724 96.6131 85.1135 97.6894 85.5892 97.268C86.0652 96.8466 85.1958 95.0871 83.6474 93.3382Z" fill="white"/>
<path d="M81.9546 94.8498C81.4881 92.5611 80.605 90.8085 79.9822 90.9354C79.3592 91.0622 79.2324 93.0208 79.6989 95.3096C80.1654 97.5983 81.0485 99.3511 81.6715 99.224C82.2942 99.0971 82.421 97.1388 81.9546 94.8498Z" fill="white"/>
<path d="M79.733 95.313C80.4733 93.0977 80.585 91.1385 79.9822 90.9369C79.3793 90.7356 78.2903 92.368 77.5499 94.5834C76.8094 96.799 76.6978 98.7582 77.3007 98.9598C77.9036 99.1611 78.9925 97.5287 79.733 95.313Z" fill="white"/>
<path d="M77.5784 94.5998C79.3274 93.0514 80.4037 91.4103 79.9823 90.9343C79.5609 90.4583 77.8015 91.3277 76.0525 92.8761C74.3036 94.4245 73.2273 96.0656 73.6488 96.5416C74.0701 97.0176 75.8295 96.1482 77.5784 94.5998Z" fill="white"/>
<path d="M76.0676 92.9061C78.3565 92.4396 80.1091 91.5568 79.9822 90.9338C79.8551 90.3111 77.8968 90.1842 75.608 90.6507C73.3191 91.1172 71.5666 92.0003 71.6936 92.623C71.8205 93.246 73.7788 93.3726 76.0676 92.9061Z" fill="white"/>
<path d="M75.606 90.687C77.8214 91.4274 79.7807 91.5388 79.9823 90.936C80.1836 90.3331 78.551 89.2442 76.3356 88.5039C74.1203 87.7633 72.1609 87.6519 71.9594 88.2547C71.758 88.8575 73.3905 89.9464 75.606 90.687Z" fill="white"/>
<path d="M76.3169 88.5322C77.8653 90.2811 79.5063 91.3574 79.9823 90.936C80.458 90.5146 79.5886 88.7553 78.0404 87.0065C76.492 85.2573 74.8509 84.1813 74.375 84.6027C73.899 85.0238 74.7684 86.7833 76.3169 88.5322Z" fill="white"/>
<path d="M78.0098 87.0205C78.4763 89.3093 79.3592 91.0618 79.9822 90.9349C80.6049 90.8081 80.7318 88.8498 80.2653 86.5608C79.7988 84.2721 78.9158 82.5196 78.2929 82.6464C77.6701 82.7735 77.5434 84.7318 78.0098 87.0205Z" fill="white"/>
<path d="M78.4896 90.8435C78.4394 91.6678 79.0672 92.3768 79.8912 92.4269C80.7155 92.477 81.4245 91.8492 81.4746 91.0249C81.5247 90.2009 80.8973 89.4919 80.0729 89.4418C79.2486 89.3917 78.5397 90.0192 78.4896 90.8435Z" fill="#F8A264"/>
<path d="M90.3962 60.7335C89.1598 60.848 87.9012 60.7156 86.7156 60.346C86.2072 60.1872 85.6922 59.9719 85.3417 59.5706C84.9911 59.1691 84.8553 58.538 85.1544 58.097C85.4058 57.7263 85.8989 57.5801 86.3441 57.6297C86.7893 57.679 87.1981 57.8912 87.5876 58.1121C88.9548 58.8883 90.2266 59.8198 91.4944 60.7492" fill="#F8A264"/>
<path d="M90.9991 53.8906C90.5676 54.0101 90.271 54.4304 90.1753 54.8681C90.0795 55.3054 90.1495 55.7607 90.2341 56.2006C90.5314 57.7442 91.0069 59.2473 91.4809 60.7461L91.8181 59.7006C92.3223 58.566 92.6001 57.3312 92.6295 56.09C92.6421 55.5571 92.6032 55.0005 92.3352 54.5399C92.0673 54.0793 91.5126 53.7486 90.9991 53.8906Z" fill="#F8A264"/>
<path d="M91.4944 60.75C90.7435 60.258 89.7697 59.5323 89.0002 59.0207C88.2308 58.5089 87.5409 57.8486 87.1743 57.0005C86.9893 56.5724 86.9162 56.0575 87.1461 55.6518C87.5005 55.0249 88.4363 54.9549 89.0562 55.3214C89.6759 55.6879 90.0497 56.3509 90.3803 56.9907C91.024 58.2356 91.4093 59.3508 91.4944 60.75Z" fill="#F8A264"/>
<path d="M91.654 58.2748C91.5569 58.3244 91.4435 58.3793 91.3822 58.6769C91.2601 59.2683 91.2354 59.5105 91.2038 60.0279C91.1596 59.6096 90.9403 59.1543 90.7667 58.7713C90.6917 58.6058 90.3655 58.3832 90.1888 58.4255C90.0054 58.4692 89.9704 58.715 89.9976 58.9012C90.0818 59.4777 90.3957 60.0173 90.8549 60.3757C90.3789 60.1388 89.8167 60.08 89.302 60.213C89.1758 60.2458 89.0358 60.3062 88.9994 60.4314C88.9702 60.5325 89.0237 60.6434 89.1055 60.71C89.187 60.7766 89.2914 60.8074 89.3936 60.8324C90.0827 61.0001 90.8196 60.9665 91.4905 60.7363C91.8582 60.0134 91.9828 59.8381 92.221 58.6187C92.2381 58.5305 92.2065 58.3972 92.0536 58.2947C91.9629 58.2342 91.7512 58.2253 91.654 58.2748Z" fill="#3D907E"/>
<path d="M91.215 60.7798C92.7482 64.7328 96.0492 67.8823 100.074 69.2207C100.288 69.2918 100.38 68.9539 100.167 68.883C96.2673 67.5866 93.0389 64.5192 91.5526 60.6868C91.472 60.4791 91.1335 60.5695 91.215 60.7798Z" fill="#3D907E"/>
<path d="M128.086 101.244L94.6844 102.701C83.8837 103.801 73.6062 109.364 66.78 117.806C80.382 125.229 103.364 127.521 118.855 127.879C139.626 128.359 157.595 125.57 176.693 114.379C163.531 103.07 145.152 98.1027 128.086 101.244Z" fill="#3D907E"/>
<path d="M79.831 107.125C82.4356 111.866 85.0402 116.606 87.6444 121.347C87.6806 121.412 87.7702 121.449 87.8421 121.427C89.0808 121.039 90.3196 120.651 91.5583 120.264C94.5266 119.334 97.4951 118.405 100.463 117.475C104.04 116.355 107.617 115.235 111.194 114.116C114.259 113.156 117.323 112.197 120.387 111.237C121.811 110.792 123.273 110.405 124.676 109.895C124.758 109.865 124.615 109.885 124.625 109.886C124.663 109.889 124.704 109.899 124.741 109.908C124.939 109.952 125.141 109.983 125.341 110.021C126.175 110.178 127.009 110.335 127.842 110.493C130.772 111.045 133.701 111.598 136.631 112.151C140.303 112.843 143.974 113.536 147.646 114.229C150.938 114.85 154.231 115.471 157.523 116.092C159.312 116.429 161.1 116.767 162.889 117.104C162.973 117.12 163.057 117.136 163.142 117.152C163.226 117.168 163.342 117.129 163.357 117.03C163.832 113.978 164.307 110.925 164.782 107.873C164.849 107.445 164.915 107.016 164.982 106.587C165.017 106.367 164.679 106.272 164.645 106.494C164.17 109.547 163.695 112.599 163.22 115.651C163.153 116.08 163.086 116.508 163.02 116.937C163.091 116.896 163.163 116.855 163.235 116.815C161.966 116.575 160.697 116.336 159.429 116.096C156.392 115.524 153.355 114.951 150.318 114.378C146.635 113.683 142.952 112.988 139.269 112.293C136.051 111.686 132.834 111.079 129.616 110.472C128.017 110.171 126.414 109.797 124.804 109.564C124.572 109.531 124.383 109.62 124.159 109.69C123.423 109.92 122.688 110.15 121.953 110.381C119.19 111.245 116.428 112.11 113.666 112.975C110.098 114.092 106.531 115.209 102.964 116.326C99.7421 117.335 96.5204 118.343 93.299 119.352C91.532 119.905 89.7652 120.458 87.9984 121.012C87.9152 121.038 87.8323 121.064 87.7492 121.089C87.815 121.116 87.8808 121.143 87.9468 121.17C85.3423 116.43 82.7377 111.689 80.1332 106.949C80.0248 106.751 79.7224 106.928 79.831 107.125Z" fill="#AAD0D5"/>
<path d="M123.447 114.231C124.638 118.579 125.471 123.02 125.933 127.505C125.956 127.727 126.306 127.729 126.283 127.505C125.818 122.989 124.984 118.517 123.785 114.138C123.726 113.921 123.388 114.013 123.447 114.231Z" fill="#AAD0D5"/>
<path d="M66.4314 118.293C73.3649 119.195 80.2793 120.237 87.2104 121.157C94.0253 122.062 100.856 122.789 107.711 123.317C110.907 123.563 114.106 123.772 117.307 123.942C118.798 124.022 120.289 124.092 121.78 124.154C123.2 124.213 124.65 124.349 126.069 124.24C127.272 124.148 128.477 123.851 129.659 123.623C134.876 122.618 140.093 121.613 145.31 120.607C151.962 119.326 158.614 118.044 165.265 116.762C167.769 116.279 170.272 115.797 172.776 115.314C174.038 115.071 175.324 114.879 176.575 114.582C176.629 114.57 176.685 114.561 176.739 114.551C176.96 114.508 176.866 114.171 176.646 114.213C173.513 114.817 170.38 115.421 167.247 116.025C160.75 117.277 154.254 118.529 147.757 119.78C142.129 120.865 136.501 121.95 130.873 123.034C129.708 123.259 128.543 123.487 127.377 123.708C125.419 124.08 123.395 123.873 121.417 123.789C118.413 123.662 115.411 123.498 112.411 123.302C105.585 122.855 98.7685 122.248 91.9777 121.417C85.053 120.57 78.1526 119.538 71.2418 118.588C69.639 118.367 68.0357 118.151 66.4314 117.943C66.2087 117.913 66.2108 118.264 66.4314 118.293Z" fill="#1B1C1D"/>
<path d="M126.187 36.3086C125.163 35.591 120.589 32.196 118.848 24.9994C118.312 22.7843 118.069 20.1526 118.409 19.6195" stroke="#3D907E" stroke-width="1.33333" stroke-miterlimit="10" stroke-linecap="round" stroke-linejoin="round"/>
<path d="M143.546 42.2903C143.34 39.2699 145.128 36.5072 145.811 33.5579C146.934 28.7055 144.118 22.8538 139.922 20.17L138.82 19.4748C136.499 18.0107 133.78 17.2488 131.042 17.4297C124.144 17.8849 120.459 23.5558 118.313 27.1023C116.926 29.3963 115.219 32.6216 113.56 34.1501C111.587 35.9662 109.311 37.9629 106.635 38.1357C106.768 39.4987 107.766 40.7383 109.07 41.1574C110.374 41.5766 111.908 41.1515 112.81 40.1211C111.965 41.0491 111.121 41.977 110.276 42.9049C112.319 45.624 115.294 47.5277 118.447 48.8039C121.599 50.0802 124.951 50.7754 128.281 51.4648C131.247 52.0785 134.214 52.6923 137.18 53.3063C138.347 53.5477 139.595 53.7832 140.701 53.3385C141.806 52.8939 142.598 51.4743 141.954 50.4713C142.568 51.4029 142.908 52.5131 142.921 53.6289C144.07 53.5956 145.219 53.5625 146.368 53.5295C147.413 49.7433 143.812 46.2089 143.546 42.2903Z" fill="#1B1C1D"/>
<path d="M129.782 42.6912C129.674 42.9334 127.725 51.8164 127.725 51.8164L116.473 46.8156L121.436 35.6489L129.782 42.6912Z" fill="#F9AD8E"/>
<path d="M129.347 45.6841C129.347 45.6841 135.943 47.4725 138.996 40.6223C140.04 38.2801 141.124 35.7895 142.595 31.2232C144.177 26.314 141.519 22.8148 136.458 20.6882L135.955 20.4768C130.408 18.4958 125.741 19.9067 124.074 25.1861L122.523 30.2964C122.523 30.2964 117.383 40.6743 129.338 45.6883" fill="#F9AD8E"/>
<path d="M130.373 30.3365C131.222 30.199 132.102 30.5694 132.628 31.242C132.686 31.317 132.814 31.3025 132.875 31.242C132.95 31.1692 132.933 31.0687 132.875 30.9945C132.268 30.2175 131.246 29.8426 130.28 29.9988C130.186 30.0142 130.135 30.1298 130.158 30.2141C130.184 30.3135 130.28 30.3513 130.373 30.3365Z" fill="#1B1C1D"/>
<path d="M137.785 33.2543C138.634 33.1171 139.514 33.4875 140.039 34.1601C140.098 34.2351 140.225 34.2203 140.287 34.1601C140.361 34.0873 140.345 33.9865 140.287 33.9126C139.68 33.1356 138.658 32.7604 137.691 32.9169C137.598 32.932 137.547 33.0479 137.569 33.1322C137.596 33.2316 137.692 33.2694 137.785 33.2543Z" fill="#1B1C1D"/>
<path d="M139.157 30.6828C139.852 30.8511 140.517 31.1437 141.111 31.543" stroke="#1B1C1D" stroke-width="4" stroke-miterlimit="10" stroke-linecap="round" stroke-linejoin="round"/>
<path d="M132.055 27.8687C132.72 28.0896 133.373 28.4027 133.974 28.7891" stroke="#1B1C1D" stroke-width="4" stroke-miterlimit="10" stroke-linecap="round" stroke-linejoin="round"/>
<path d="M123.038 30.9674C125.472 32.5321 128.329 27.8191 133.841 27.6324C136.816 27.5313 140.408 24.8741 142.155 22.3812C142.155 22.3812 137.644 16.4116 131.254 17.673C124.863 18.9344 121.79 25.0435 121.79 25.0435L123.038 30.9674Z" fill="#1B1C1D"/>
<path d="M124.138 30.3108C123.53 29.5147 122.637 28.8746 121.639 28.9004C120.615 28.9264 119.64 29.7054 119.279 30.7128C118.918 31.7203 119.156 32.8904 119.818 33.6727C120.479 34.455 121.522 34.8468 122.546 34.7723L124.138 30.3108Z" fill="#F9AD8E"/>
<path d="M121.873 30.788C121.632 30.5817 121.254 30.5786 120.985 30.7463C120.716 30.914 120.556 31.2265 120.53 31.5423C120.503 31.8582 120.598 32.1754 120.753 32.4523C120.886 32.6906 121.076 32.9132 121.333 33.0045C121.642 33.1145 122.009 33.0025 122.228 32.7584C122.448 32.5142 122.522 32.1572 122.451 31.8369C122.38 31.5163 122.174 31.2341 121.909 31.04" fill="#F79988"/>
<path d="M122.531 32.2757C122.662 31.5591 122.202 30.753 121.542 30.4649C121.317 30.3666 121.074 30.3263 120.829 30.34C120.694 30.3479 120.693 30.5579 120.829 30.55C121.198 30.529 121.552 30.6466 121.825 30.8989C122.069 31.124 122.238 31.4267 122.31 31.7498C122.344 31.9027 122.356 32.0648 122.328 32.2199C122.304 32.3521 122.506 32.4087 122.531 32.2757Z" fill="#F35C61"/>
<path d="M129.401 45.7057C128.094 45.1099 126.473 44.0134 125.67 42.1609C125.67 42.1609 125.44 45.8023 128.701 47.2812L129.401 45.7057Z" fill="#F35C61"/>
<path d="M135.362 32.6946C135.037 33.4276 134.707 34.1677 134.467 34.9343C134.355 35.2916 134.256 35.669 134.266 36.0467C134.273 36.3094 134.343 36.5611 134.404 36.8148C134.457 37.036 134.517 37.272 134.514 37.4999C134.504 38.1988 133.655 38.149 133.169 38.0949C132.945 38.07 132.947 38.42 133.169 38.4449C133.798 38.5149 134.708 38.4763 134.846 37.6842C134.91 37.323 134.793 36.9313 134.706 36.5793C134.571 36.0344 134.636 35.5626 134.804 35.0273C135.036 34.2895 135.351 33.5771 135.664 32.8713C135.754 32.6671 135.453 32.4888 135.362 32.6946Z" fill="#1B1C1D"/>
<path d="M129.458 37.3262C129.856 37.3215 130.268 37.3215 130.631 37.485C130.994 37.6485 131.293 38.0229 131.239 38.4171C131.2 38.6996 130.996 38.9273 130.802 39.1359C130.663 39.2846 130.516 39.4391 130.321 39.4985C130.005 39.5948 129.66 39.3996 129.469 39.1303C129.142 38.6716 129.175 37.991 129.544 37.5662" fill="#F35C61"/>
<path d="M129.085 36.8032C129.136 37.9121 129.847 38.9111 130.867 39.3381C130.955 39.3751 131.059 39.2986 131.082 39.216C131.111 39.1155 131.047 39.0371 130.96 39.0007C130.091 38.6367 129.478 37.741 129.435 36.8032C129.425 36.579 129.075 36.5778 129.085 36.8032Z" fill="#1B1C1D"/>
<path d="M126.958 34.4671C126.629 35.2079 126.963 36.0751 127.703 36.4044C128.444 36.7336 129.311 36.3999 129.64 35.6593C129.969 34.9184 129.636 34.0512 128.895 33.722C128.154 33.3927 127.287 33.7265 126.958 34.4671Z" fill="#F79988"/>
<path d="M138.377 35.9634C138.252 36.3268 137.865 36.5278 137.512 36.413C137.16 36.2985 136.974 35.9118 137.099 35.5484C137.224 35.1852 137.611 34.9836 137.963 35.0979C138.316 35.2127 138.502 35.6002 138.377 35.9634Z" fill="#1B1C1D"/>
<path d="M132 33.2016C131.875 33.5651 131.488 33.7661 131.135 33.6513C130.783 33.5368 130.598 33.1501 130.722 32.7867C130.847 32.4232 131.234 32.2219 131.586 32.3362C131.939 32.451 132.125 32.8385 132 33.2016Z" fill="#1B1C1D"/>
<path d="M141.889 22.8941C144.979 25.4111 146.686 29.4268 146.475 33.3955C146.422 34.4088 146.235 35.4065 145.929 36.3733C145.571 37.5037 145.089 38.5932 144.787 39.7409C144.501 40.8223 144.424 41.9212 144.656 43.0202C144.889 44.1192 145.363 45.1491 145.832 46.1632C146.8 48.2576 147.982 51.0008 146.434 53.1263C146.301 53.3086 146.605 53.4836 146.736 53.303C147.995 51.5751 147.537 49.2477 146.774 47.414C145.84 45.1681 144.498 43.0267 144.974 40.493C145.204 39.2666 145.705 38.1147 146.109 36.9403C146.443 35.9693 146.682 34.9787 146.783 33.9558C146.981 31.9558 146.687 29.9067 145.973 28.0299C145.179 25.9414 143.872 24.0603 142.137 22.6466C141.963 22.5055 141.714 22.7516 141.889 22.8941Z" fill="#1B1C1D"/>
<path d="M106.427 37.0224C108.291 36.8362 110.098 36.2339 111.696 35.2528C113.341 34.2426 114.66 32.8599 115.731 31.2634C116.851 29.5937 117.731 27.7768 118.865 26.1164C119.96 24.5151 121.328 23.105 122.896 21.9629C124.633 20.6979 126.593 19.7643 128.671 19.2189C128.888 19.1618 128.796 18.8238 128.578 18.8812C125.011 19.8175 121.763 21.8974 119.439 24.7635C116.938 27.8471 115.716 31.8668 112.45 34.3184C110.701 35.6308 108.602 36.4551 106.427 36.6724C106.204 36.6945 106.202 37.0448 106.427 37.0224Z" fill="#1B1C1D"/>
<path d="M107.083 38.7263C109.002 40.4505 111.893 40.7087 114.051 39.2692C115.088 38.5782 115.828 37.5918 116.281 36.4382C116.767 35.2008 116.939 33.8722 117.228 32.582C117.521 31.275 117.958 30.0024 118.865 28.9874C119.721 28.03 120.853 27.3541 122.049 26.9067C124.946 25.8222 128.08 26.1115 131.111 25.9678C134.488 25.8077 137.77 24.8982 140.718 23.2314C140.914 23.1205 140.738 22.8181 140.541 22.9293C137.943 24.3982 135.043 25.3084 132.067 25.5565C129.073 25.806 125.998 25.4431 123.063 26.2184C120.777 26.8218 118.57 28.1289 117.565 30.3549C116.514 32.6814 116.772 35.5136 115.251 37.641C114.415 38.8092 113.087 39.6184 111.665 39.822C110.108 40.0446 108.495 39.5254 107.33 38.4788C107.163 38.3287 106.915 38.5754 107.083 38.7263Z" fill="#372C2E"/>
<path d="M141.389 23.3929C142.756 24.598 143.669 26.2629 143.942 28.0661C144.227 29.9443 143.703 31.7957 143.012 33.5272C142.316 35.2741 141.453 36.9589 140.96 38.7811C140.465 40.6112 140.298 42.5312 140.453 44.4198C140.623 46.4901 141.179 48.5114 142.095 50.3756C142.195 50.5778 142.496 50.4006 142.397 50.199C140.667 46.678 140.276 42.5395 141.33 38.7584C142.313 35.2307 144.816 31.9555 144.302 28.1288C144.044 26.2136 143.086 24.423 141.637 23.1456C141.469 22.9969 141.22 23.2436 141.389 23.3929Z" fill="#372C2E"/>
<path d="M139.036 118.112C140.477 117.612 142.278 116.731 142.315 115.206C142.353 113.681 141.629 112.212 140.612 111.074C139.596 109.936 138.302 109.086 136.999 108.293C135.658 107.476 134.204 106.611 133.579 105.171C133.178 104.246 133.401 102.482 132.892 101.612C132.387 100.745 131.472 100.056 130.232 99.9433C129.233 99.8526 128.011 99.7173 127.009 99.763C125.051 99.852 123.327 100.721 121.375 100.895C121.145 100.916 120.897 100.945 120.729 101.102C120.54 101.28 120.509 101.566 120.491 101.825C120.327 104.132 120.164 106.439 120 108.746C121.743 109.502 123.01 108.779 124.663 109.716C125.224 110.034 125.661 110.529 126.077 111.023C127.715 112.974 130.116 114.964 132.066 116.603C134.016 118.242 136.569 119.386 139.082 118.968" fill="#F9AD8E"/>
<path d="M137.164 118.871C137.024 119.425 136.352 119.657 135.781 119.644C135.393 119.635 134.981 119.543 134.712 119.263C134.519 119.063 134.421 118.792 134.27 118.558C133.847 117.903 129.607 114.94 128.727 113.871" fill="#F9AD8E"/>
<path d="M136.996 118.825C136.839 119.325 136.251 119.479 135.781 119.469C135.517 119.464 135.232 119.418 135.005 119.274C134.754 119.116 134.642 118.853 134.501 118.605C134.289 118.231 133.935 117.96 133.609 117.689C132.5 116.764 131.335 115.91 130.218 114.995C129.745 114.608 129.245 114.218 128.85 113.748C128.705 113.575 128.459 113.824 128.603 113.995C128.989 114.456 129.478 114.839 129.941 115.218C130.587 115.749 131.249 116.261 131.907 116.776C132.488 117.23 133.074 117.68 133.63 118.164C133.786 118.3 133.958 118.438 134.086 118.603C134.335 118.922 134.43 119.314 134.784 119.549C135.549 120.058 137.026 119.899 137.333 118.918C137.4 118.703 137.063 118.611 136.996 118.825Z" fill="#F35C61"/>
<path d="M140.15 118.11C139.839 119.418 138.07 119.217 137.285 118.889C136.499 118.561 135.9 117.819 135.746 116.982" fill="#F9AD8E"/>
<path d="M139.981 118.066C139.752 118.96 138.734 119.049 137.966 118.906C136.939 118.714 136.122 117.982 135.915 116.938C135.871 116.717 135.534 116.811 135.578 117.031C135.813 118.221 136.786 119.069 137.962 119.259C138.902 119.41 140.045 119.223 140.318 118.159C140.374 117.941 140.037 117.848 139.981 118.066Z" fill="#F35C61"/>
<path d="M141.746 116.654C141.668 117.325 141.083 117.876 140.42 118.008C139.758 118.139 139.055 117.893 138.545 117.451C138.035 117.009 137.702 116.39 137.505 115.744" fill="#F9AD8E"/>
<path d="M141.577 116.609C141.442 117.579 140.42 118.041 139.537 117.796C138.556 117.524 137.962 116.622 137.674 115.698C137.607 115.484 137.269 115.575 137.337 115.791C137.673 116.871 138.405 117.917 139.575 118.166C140.594 118.383 141.761 117.804 141.915 116.702C141.946 116.482 141.609 116.387 141.577 116.609Z" fill="#F35C61"/>
<path d="M138.993 109.692C140.291 110.257 141.426 111.192 142.229 112.359C142.748 113.113 143.139 114.02 143.007 114.927C142.875 115.833 142.068 116.679 141.156 116.591C140.405 116.519 139.842 115.889 139.399 115.277C138.957 114.665 138.505 113.987 137.795 113.731" fill="#F9AD8E"/>
<path d="M138.904 109.842C139.985 110.323 140.945 111.035 141.7 111.947C142.45 112.853 143.233 114.215 142.684 115.404C142.463 115.883 142.028 116.313 141.492 116.405C140.893 116.508 140.372 116.139 139.984 115.724C139.279 114.968 138.862 113.963 137.842 113.562C137.632 113.479 137.541 113.818 137.749 113.899C138.713 114.279 139.122 115.348 139.809 116.047C140.414 116.663 141.261 116.999 142.072 116.567C142.873 116.14 143.271 115.215 143.198 114.337C143.113 113.309 142.53 112.381 141.876 111.615C141.115 110.722 140.151 110.016 139.081 109.54C138.877 109.45 138.699 109.751 138.904 109.842Z" fill="#F35C61"/>
<path d="M112.799 93.3501C107.213 87.8688 100.54 83.8527 93.4906 83.2807C90.3943 83.0295 87.1542 83.4924 84.502 85.5336C81.8499 87.5748 79.9277 91.4505 80.3278 95.351C80.6 98.0051 81.891 100.366 83.5251 102.061C85.1592 103.756 87.1209 104.86 89.0963 105.805C94.5997 108.439 122.601 114.034 128.474 114.453L134.124 104.722L112.799 93.3501Z" fill="#D94D56"/>
<path d="M87.8312 91.4901C96.1365 91.1045 104.238 96.1823 112.94 102.188L87.8312 91.4901Z" fill="#D94D56"/>
<path d="M87.8312 91.6666C94.8937 91.3592 101.455 94.9191 107.236 98.591C109.136 99.7978 110.999 101.062 112.852 102.34C113.038 102.468 113.213 102.165 113.028 102.038C109.758 99.7821 106.455 97.5533 102.966 95.6454C99.904 93.9708 96.6627 92.5226 93.2358 91.7912C91.4606 91.4124 89.6456 91.2377 87.8312 91.3166C87.6069 91.3262 87.6058 91.6764 87.8312 91.6666Z" fill="#1B1C1D"/>
<path d="M99.8188 122.374C98.3774 121.874 96.5772 120.993 96.5397 119.468C96.5022 117.943 97.226 116.474 98.2424 115.336C99.2591 114.198 100.553 113.348 101.856 112.554C103.197 111.738 104.651 110.873 105.276 109.432C105.677 108.508 105.454 106.743 105.962 105.873C106.468 105.007 107.382 104.318 108.622 104.205C109.621 104.114 110.844 103.979 111.846 104.025C113.804 104.114 115.528 104.982 117.48 105.157C117.71 105.178 117.958 105.207 118.126 105.364C118.315 105.542 118.345 105.827 118.364 106.086C118.528 108.394 118.691 110.701 118.855 113.008C117.112 113.764 115.845 113.041 114.192 113.978C113.63 114.296 113.193 114.791 112.778 115.285C111.14 117.235 108.739 119.226 106.789 120.865C104.838 122.503 102.285 123.648 99.7729 123.23" fill="#F9AD8E"/>
<path d="M101.691 123.133C101.831 123.686 102.503 123.919 103.073 123.906C103.462 123.897 103.873 123.805 104.143 123.525C104.336 123.325 104.434 123.054 104.584 122.82C105.008 122.164 109.248 119.202 110.128 118.133" fill="#F9AD8E"/>
<path d="M101.522 123.18C101.793 124.046 102.933 124.232 103.699 123.985C104.412 123.755 104.56 123.028 105.071 122.563C106.196 121.537 107.458 120.657 108.642 119.702C109.196 119.254 109.792 118.806 110.252 118.257C110.396 118.086 110.149 117.837 110.005 118.01C109.666 118.414 109.244 118.753 108.84 119.089C108.268 119.565 107.681 120.024 107.094 120.482C106.534 120.921 105.971 121.356 105.42 121.807C105.092 122.075 104.711 122.348 104.46 122.695C104.338 122.862 104.263 123.059 104.149 123.232C103.949 123.534 103.638 123.675 103.286 123.718C102.768 123.78 102.038 123.658 101.859 123.087C101.792 122.873 101.454 122.964 101.522 123.18Z" fill="#F35C61"/>
<path d="M98.7056 122.372C99.0161 123.679 100.785 123.478 101.571 123.15C102.356 122.823 102.954 122.081 103.109 121.244" fill="#F9AD8E"/>
<path d="M98.5368 122.42C98.8095 123.484 99.9524 123.672 100.893 123.52C102.068 123.33 103.042 122.483 103.277 121.292C103.321 121.072 102.984 120.978 102.94 121.199C102.733 122.244 101.916 122.975 100.889 123.167C100.121 123.311 99.1032 123.221 98.8742 122.328C98.8184 122.109 98.4808 122.202 98.5368 122.42Z" fill="#F35C61"/>
<path d="M97.1084 120.916C97.1865 121.587 97.772 122.138 98.4342 122.269C99.0967 122.401 99.7995 122.155 100.31 121.713C100.82 121.271 101.153 120.651 101.349 120.005" fill="#F9AD8E"/>
<path d="M96.9399 120.963C97.093 122.063 98.2615 122.647 99.2801 122.427C100.45 122.174 101.181 121.134 101.518 120.052C101.585 119.837 101.248 119.744 101.181 119.959C100.892 120.885 100.299 121.782 99.3179 122.057C98.4348 122.304 97.4122 121.838 97.2773 120.87C97.2465 120.648 96.9091 120.742 96.9399 120.963Z" fill="#F35C61"/>
<path d="M99.8622 113.953C98.5639 114.519 97.4293 115.454 96.6263 116.62C96.1066 117.375 95.7157 118.282 95.8476 119.189C95.9797 120.095 96.787 120.941 97.6989 120.853C98.4505 120.781 99.0133 120.15 99.4554 119.539C99.8978 118.927 100.349 118.249 101.06 117.993" fill="#F9AD8E"/>
<path d="M99.774 113.803C98.8394 114.218 97.9887 114.808 97.2792 115.546C96.5733 116.279 95.9246 117.19 95.7143 118.203C95.527 119.106 95.7613 120.057 96.5053 120.644C97.1941 121.188 98.0641 121.117 98.7369 120.587C99.6228 119.89 100.012 118.592 101.106 118.162C101.313 118.08 101.223 117.742 101.013 117.824C99.9933 118.226 99.5761 119.231 98.8707 119.986C98.4832 120.402 97.9616 120.771 97.3627 120.668C96.8268 120.576 96.3922 120.146 96.171 119.667C95.6222 118.477 96.4042 117.116 97.1543 116.21C97.9101 115.297 98.8693 114.585 99.9507 114.105C100.156 114.014 99.9781 113.712 99.774 113.803Z" fill="#F35C61"/>
<path d="M130.692 93.3501C136.278 87.8688 142.951 83.8527 150 83.2807C153.096 83.0295 156.337 83.4924 158.989 85.5336C161.641 87.5748 163.563 91.4505 163.163 95.351C162.891 98.0051 161.6 100.366 159.966 102.061C158.332 103.756 156.37 104.86 154.394 105.805C148.891 108.439 120.89 114.034 115.017 114.453L109.89 103.575L130.692 93.3501Z" fill="#D94D56"/>
<path d="M150.074 91.9131C151.606 91.2377 153.295 90.9896 154.957 91.1744C155.18 91.1993 155.179 90.8493 154.957 90.8244C153.23 90.6323 151.487 90.9104 149.898 91.6109C149.692 91.7017 149.87 92.0032 150.074 91.9131Z" fill="#1B1C1D"/>
<path d="M119.256 100.163C117.651 100.645 116.036 101.1 114.444 101.627C112.867 102.15 111.327 102.77 109.802 103.427C109.737 103.455 109.697 103.559 109.722 103.624C111.163 107.459 112.915 111.172 114.963 114.72C115.004 114.792 115.084 114.815 115.161 114.801C117.635 114.342 120.108 113.878 122.58 113.413C126.907 112.599 131.232 111.782 135.551 110.93C137.101 110.624 138.657 110.33 140.196 109.97C140.415 109.919 140.322 109.581 140.103 109.632C136.746 110.417 133.338 111.011 129.954 111.66C125.886 112.439 121.815 113.205 117.744 113.965C116.852 114.131 115.96 114.298 115.068 114.463C115.133 114.49 115.199 114.517 115.265 114.544C113.232 111.022 111.489 107.338 110.059 103.531C110.032 103.597 110.005 103.663 109.979 103.729C111.504 103.072 113.045 102.456 114.623 101.936C116.187 101.421 117.773 100.974 119.349 100.501C119.565 100.436 119.473 100.098 119.256 100.163Z" fill="#1B1C1D"/>
<path d="M152.049 80.0784C150.823 77.9283 148.677 76.4222 146.379 75.5024C144.081 74.5823 141.612 74.1892 139.167 73.8028L97.0353 78.075C93.5569 79.0656 91.4211 82.9761 91.7831 86.5747C92.1449 90.1732 94.582 93.3232 97.6135 95.2958C100.645 97.2679 104.225 98.2129 107.781 98.8703C117.319 100.634 127.197 100.531 136.696 98.5707C141.292 97.6221 145.987 96.1358 149.362 92.8738C152.737 89.6118 154.374 84.1558 152.049 80.0784Z" fill="#F8A264"/>
<path d="M108.148 99.095C116.045 100.937 124.247 100.379 132.215 99.3358C136.189 98.8156 140.169 98.2113 143.897 96.6702C146.949 95.4088 149.829 93.4424 151.6 90.5967C152.513 89.1298 153.004 87.4106 153.171 85.6998C153.341 83.961 153.16 82.1533 152.438 80.55C152.345 80.3448 152.044 80.5226 152.136 80.7264C153.397 83.5259 153.034 87.141 151.638 89.8236C150.121 92.7396 147.255 94.809 144.31 96.1161C140.757 97.6933 136.917 98.3499 133.092 98.8691C129.187 99.3985 125.261 99.8211 121.32 99.9266C116.932 100.044 112.523 99.7567 108.241 98.7576C108.022 98.7064 107.928 99.0438 108.148 99.095Z" fill="#1B1C1D"/>
<path d="M91.5555 86.3832C93.4522 89.5478 97.2474 90.7154 100.632 91.5039C105.303 92.5922 110.038 93.4605 114.812 93.9399C119.585 94.4192 124.415 94.4951 129.186 93.9382C133.314 93.4563 137.395 92.5018 141.271 90.9931C145.08 89.5108 148.685 87.494 151.852 84.9015C152.256 84.5702 152.652 84.2295 153.042 83.8809C153.21 83.7302 152.962 83.4833 152.794 83.6334C149.764 86.346 146.267 88.4956 142.535 90.1008C138.781 91.7155 134.796 92.7815 130.757 93.3804C126.18 94.0591 121.52 94.1165 116.911 93.7735C112.149 93.4196 107.429 92.632 102.766 91.6229C99.2659 90.8655 95.142 90.1207 92.65 87.2977C92.3513 86.9595 92.0895 86.5935 91.8576 86.2066C91.742 86.0136 91.4393 86.1895 91.5555 86.3832Z" fill="#DDE3C2"/>
<path d="M131.992 48.1684L118.785 45.4219C118.785 45.4219 105.123 46.7673 103.483 48.2143C101.843 49.6616 107.632 81.3047 107.632 81.3047H138.407V55.5903L131.992 48.1684Z" fill="#F9AD8E"/>
<path d="M132.719 49.5572C131.099 49.0972 129.442 48.788 127.766 48.6282C127.542 48.6069 127.543 48.9569 127.766 48.9782C129.411 49.135 131.036 49.4432 132.626 49.8949C132.843 49.9565 132.935 49.6188 132.719 49.5572Z" fill="#F35C61"/>
<path d="M120.671 48.5026C119.662 48.3049 118.654 48.1075 117.645 47.9101C117.425 47.867 117.331 48.2044 117.552 48.2478C118.561 48.4452 119.569 48.6426 120.578 48.84C120.798 48.8831 120.892 48.5457 120.671 48.5026Z" fill="#F35C61"/>
<path d="M137.118 63.6918C136.949 61.9466 135.682 60.4026 133.994 59.9149C133.777 59.8521 133.684 60.1898 133.901 60.2523C135.429 60.6941 136.614 62.1045 136.768 63.6918C136.789 63.9141 137.139 63.9164 137.118 63.6918Z" fill="#F35C61"/>
<path d="M136.333 55.6317C135.946 57.226 135.438 58.8175 134.829 60.3407C134.746 60.5499 135.084 60.6409 135.167 60.434C135.775 58.9105 136.284 57.3189 136.67 55.7246C136.724 55.5059 136.386 55.4127 136.333 55.6317Z" fill="#F35C61"/>
<path d="M123.252 66.417C123.21 64.5304 124.128 62.6787 125.67 61.585C125.852 61.4557 125.677 61.1522 125.493 61.2829C123.851 62.448 122.857 64.4007 122.902 66.417C122.907 66.6418 123.257 66.6427 123.252 66.417Z" fill="#F35C61"/>
<path d="M119.23 61.0001C120.005 61.5962 120.565 62.4502 120.821 63.3919C120.88 63.6089 121.218 63.5168 121.158 63.2986C120.877 62.2624 120.256 61.3515 119.406 60.6977C119.331 60.6397 119.211 60.6868 119.167 60.7607C119.113 60.8503 119.155 60.9427 119.23 61.0001Z" fill="#F35C61"/>
<path d="M132.855 72.2414L111.054 59.6717L107.149 61.418L105.298 67.6013L106.442 74.5312L133.803 74.0642L132.855 72.2414Z" fill="white"/>
<path d="M131.924 48.1962C131.924 48.1962 139.28 49.2613 141.061 52.0588C142.384 54.1367 144.243 59.5048 144.243 59.5048L135.524 60.75L132.015 48.3726" fill="#F9AD8E"/>
<path d="M148.983 73.5307C147.591 67.7633 142.297 54.4728 142.297 54.4728L136.286 58.3858L138.829 74.0787L144.658 84.2656C149.945 82.127 149.945 77.5165 148.983 73.5307Z" fill="#F9AD8E"/>
<path d="M145.933 61.4358L133.778 72.2592L134.726 74.082L146.558 63.1343L145.933 61.4358Z" fill="white"/>
<path d="M131.965 75.2914C131.965 75.2914 133.931 76.7583 136.248 76.9084C139.755 77.1352 142.456 75.066 142.456 75.066C142.456 75.066 147.233 72.483 144.351 66.5966C141.469 60.7099 135.416 62.942 134.741 63.5726C134.065 64.2031 133.348 64.5033 132.992 64.6741C132.636 64.8449 130.705 64.5081 129.437 65.5208C128.333 66.402 127.839 68.3866 127.98 69.5016C128.121 70.6165 128.476 72.1042 128.476 72.1042" fill="#F9AD8E"/>
<path d="M131.965 75.2914C131.965 75.2914 133.931 76.7583 136.248 76.9084C139.755 77.1352 142.456 75.066 142.456 75.066C142.456 75.066 147.233 72.483 144.351 66.5966C141.469 60.7099 135.416 62.942 134.741 63.5726C134.065 64.2031 133.348 64.5033 132.992 64.6741C132.636 64.8449 130.705 64.5081 129.437 65.5208C128.333 66.402 127.839 68.3866 127.98 69.5016C128.121 70.6165 128.476 72.1042 128.476 72.1042" stroke="#F35C61" stroke-width="1.33333" stroke-miterlimit="10"/>
<path d="M135.486 67.0678C135.865 67.2613 136.074 67.6894 136.027 68.1097C135.978 68.5361 135.667 68.8931 135.297 69.0855C134.434 69.5335 133.267 68.9973 133.227 67.9789C133.218 67.7543 132.868 67.7532 132.877 67.9789C132.915 68.9399 133.769 69.6511 134.715 69.5945C135.578 69.543 136.438 68.8351 136.38 67.9137C136.35 67.4393 136.093 66.9849 135.663 66.7657C135.463 66.6635 135.285 66.9653 135.486 67.0678Z" fill="#F35C61"/>
<path d="M132.756 64.2409C132.684 64.6309 132.787 65.0243 133.043 65.3279C133.102 65.3984 133.23 65.3934 133.29 65.3279C133.359 65.2531 133.353 65.1554 133.29 65.0803C133.284 65.0731 133.277 65.0655 133.271 65.0579C133.284 65.0742 133.284 65.0745 133.272 65.0585C133.261 65.0428 133.249 65.0269 133.239 65.0106C133.217 64.9781 133.198 64.9443 133.18 64.9095C133.171 64.8922 133.163 64.8745 133.155 64.8569C133.147 64.8384 133.147 64.839 133.155 64.8583C133.151 64.8491 133.148 64.8401 133.145 64.8309C133.132 64.7967 133.121 64.7617 133.112 64.7264C133.102 64.6909 133.095 64.655 133.089 64.6189C133.086 64.5987 133.086 64.5999 133.089 64.622C133.088 64.6125 133.087 64.6027 133.086 64.5931C133.084 64.5735 133.083 64.5542 133.082 64.5346C133.08 64.4957 133.081 64.4568 133.083 64.4179C133.084 64.3983 133.086 64.3789 133.088 64.3596C133.083 64.405 133.092 64.342 133.093 64.3339C133.11 64.2443 133.069 64.1407 132.971 64.1185C132.885 64.0989 132.774 64.1446 132.756 64.2409Z" fill="#1B1C1D"/>
<path d="M132.654 72.3906C131.989 71.4722 130.875 70.9542 129.752 70.8019C128.628 70.6496 127.486 70.826 126.379 71.0701C122.642 71.8933 119.081 73.5003 115.991 75.7568C114.213 77.0551 112.484 78.6153 110.319 79.0107C109.576 79.1462 108.712 79.1871 108.254 79.7871C107.92 80.225 106.962 80.855 107.107 81.3862C107.601 83.1925 108.626 86.0222 110.326 86.8095C112.422 87.7806 116.357 86.8328 118.643 87.1665C120.929 87.5003 123.326 87.3312 125.44 86.3999C127.092 85.6719 129.187 84.63 130.515 83.4061C131.796 82.2254 132.356 80.8284 133.158 79.2814C133.959 77.7344 134.288 75.871 133.702 74.2299" fill="#3D907E"/>
<path d="M102.658 79.0838C103.725 77.669 105.613 74.804 106.995 73.6952C108.376 72.5864 110.112 71.8153 111.88 71.9379C113.647 72.0606 115.705 72.8597 116.158 74.5722C116.055 74.6959 116.261 74.4484 116.158 74.5722L117.278 77.4749L111.647 80.8655L104.078 84.0801C103.211 84.38 102.324 84.6835 101.406 84.6875C100.488 84.6914 99.5173 84.3419 99.0074 83.5787C98.6776 83.0853 98.5728 82.4799 98.4759 81.8945C98.1954 80.1993 97.9145 78.5042 97.634 76.8091C97.5659 76.3981 97.5072 75.9405 97.7404 75.5953C98.131 75.0174 99.1776 74.7743 99.8549 74.9418C100.638 75.1355 100.954 75.8134 101.439 76.7971C102.155 78.2503 102.658 79.0838 102.658 79.0838Z" fill="#3D907E"/>
<path d="M104.817 76.396C105.864 74.3853 107.677 72.7098 109.94 72.233C112.236 71.7491 114.772 72.5746 115.995 74.6547C116.626 75.729 116.858 77.0145 116.544 78.2278C116.487 78.4462 116.825 78.5391 116.881 78.321C117.47 76.0499 116.279 73.5912 114.244 72.4841C112.013 71.2703 109.23 71.6293 107.202 73.0777C106.065 73.8894 105.158 74.9837 104.515 76.2193C104.411 76.4187 104.713 76.5959 104.817 76.396Z" fill="#1B1C1D"/>
<path d="M108.821 86.2435C112.145 88.2452 116.299 88.2393 120.049 87.9431C122.107 87.7804 124.169 87.4256 126.083 86.6251C127.622 85.9808 129.037 85.0512 130.252 83.908C131.665 82.5788 132.799 80.963 133.558 79.1774C133.645 78.9724 133.344 78.7941 133.256 79.0007C131.94 82.0964 129.486 84.6612 126.436 86.0884C124.636 86.9309 122.66 87.3386 120.692 87.5357C118.812 87.7238 116.892 87.7882 115.006 87.6536C112.907 87.5038 110.816 87.0359 108.997 85.9411C108.804 85.8246 108.628 86.1273 108.821 86.2435Z" fill="#1B1C1D"/>
<path d="M117.656 71.5352C117.874 71.1826 117.409 70.7282 117.215 70.3622C117.02 69.9963 116.723 69.6969 116.481 69.3609C115.671 68.2395 115.517 66.678 116.092 65.4199C116.044 65.1481 116.169 64.8532 116.397 64.6981C116.626 64.543 116.946 64.5363 117.181 64.6816C117.068 64.3543 117.403 63.9847 117.748 64.0143C118.093 64.0437 118.328 64.1854 118.319 64.5315C118.334 64.3739 118.621 64.2896 118.771 64.3411C118.922 64.3926 119.013 64.6499 118.987 64.9028C118.971 65.0604 119.002 65.2186 118.994 65.3771C118.976 65.7195 119.006 66.0645 119.082 66.3991C119.134 66.6287 119.216 66.8667 119.398 67.0151C119.581 67.1638 119.89 67.177 120.029 66.9871C120.186 66.7732 120.056 66.4408 120.209 66.2244C120.367 66.0026 120.74 66.0583 120.914 66.2675C121.088 66.4767 121.111 66.7698 121.107 67.0417C121.095 67.74 120.784 68.7559 120.319 69.3652L120.736 70.5297L117.656 71.5352Z" fill="#F9AD8E"/>
<path d="M117.807 71.6211C118.046 71.1182 117.607 70.682 117.366 70.2715C117.01 69.6667 116.491 69.1879 116.218 68.5307C115.952 67.8876 115.861 67.1727 115.962 66.4837C115.987 66.3117 116.023 66.1415 116.072 65.9746C116.119 65.8111 116.218 65.6484 116.252 65.4849C116.285 65.3245 116.246 65.1623 116.339 65.0089C116.498 64.7435 116.833 64.6961 117.093 64.8303C117.231 64.9014 117.383 64.7843 117.35 64.6326C117.238 64.1294 118.124 64.0143 118.144 64.529C118.151 64.7272 118.427 64.7656 118.487 64.5755C118.513 64.5287 118.554 64.5046 118.613 64.5032C118.763 64.5497 118.831 64.646 118.816 64.7922C118.823 64.9045 118.81 65.0243 118.813 65.1371C118.819 65.4309 118.807 65.7237 118.841 66.0163C118.886 66.4092 118.964 66.9129 119.31 67.1638C119.558 67.343 119.945 67.3609 120.153 67.1083C120.282 66.9507 120.26 66.7897 120.295 66.6041C120.336 66.389 120.392 66.1835 120.645 66.2871C120.808 66.3537 120.874 66.5136 120.908 66.6752C121.007 67.1467 120.873 67.6871 120.731 68.1354C120.653 68.3807 120.558 68.6198 120.437 68.8471C120.358 68.9975 120.153 69.191 120.144 69.3626C120.134 69.5421 120.288 69.7941 120.347 69.959C120.421 70.164 120.494 70.3687 120.567 70.5736C120.608 70.5019 120.649 70.43 120.69 70.3583C119.663 70.6935 118.636 71.0286 117.609 71.3638C117.396 71.4335 117.487 71.7714 117.702 71.7014C118.729 71.3663 119.756 71.0311 120.783 70.6957C120.867 70.6682 120.938 70.573 120.905 70.4806C120.839 70.2972 120.773 70.1139 120.708 69.9307C120.656 69.7871 120.473 69.4808 120.491 69.3276C120.48 69.4248 120.587 69.2842 120.61 69.2478C120.665 69.1599 120.716 69.0692 120.764 68.9765C120.861 68.7858 120.945 68.5867 121.016 68.3849C121.158 67.9831 121.258 67.5552 121.279 67.1282C121.295 66.7824 121.269 66.3714 121.009 66.1121C120.807 65.9111 120.456 65.8293 120.206 65.9911C120.09 66.0662 120.02 66.1773 119.982 66.3087C119.922 66.5209 119.944 67.1069 119.56 66.9107C119.082 66.6657 119.177 65.6899 119.169 65.2556C119.163 64.921 119.24 64.3655 118.86 64.1874C118.6 64.0656 118.236 64.2117 118.15 64.4825C118.264 64.4982 118.379 64.5136 118.494 64.529C118.455 63.5056 116.787 63.7142 117.012 64.7255C117.098 64.6597 117.183 64.5939 117.269 64.5281C116.694 64.2308 116.016 64.5279 115.915 65.1887C115.863 65.5353 115.726 65.8511 115.656 66.1989C115.582 66.5707 115.556 66.9524 115.583 67.3304C115.633 68.0477 115.862 68.7606 116.267 69.3573C116.499 69.6995 116.793 69.996 117.008 70.3499C117.16 70.5991 117.649 71.1406 117.504 71.4444C117.408 71.6466 117.71 71.8244 117.807 71.6211Z" fill="#F35C61"/>
<path d="M118.505 66.7268C118.182 66.0825 118.141 65.2688 118.47 64.619C118.571 64.4185 118.269 64.241 118.167 64.4423C117.779 65.21 117.821 66.1413 118.202 66.9035C118.303 67.1048 118.605 66.9278 118.505 66.7268Z" fill="#F35C61"/>
<path d="M117.36 66.8507C117.151 66.1488 117.149 65.3804 117.382 64.6841C117.454 64.4699 117.116 64.378 117.045 64.5908C116.793 65.3426 116.797 66.1863 117.023 66.9437C117.087 67.159 117.425 67.0674 117.36 66.8507Z" fill="#F35C61"/>
<path d="M116.439 67.0154C116.337 66.79 116.283 66.5153 116.256 66.2627C116.228 66.0021 116.219 65.7156 116.261 65.467C116.276 65.3738 116.236 65.2786 116.139 65.2517C116.055 65.2284 115.939 65.28 115.924 65.3738C115.873 65.6764 115.874 65.9847 115.909 66.2891C115.944 66.5999 116.008 66.9056 116.136 67.1921C116.175 67.2783 116.3 67.299 116.376 67.2548C116.464 67.203 116.477 67.1022 116.439 67.0154Z" fill="#F35C61"/>
<path d="M117.194 70.5219C117.214 71.673 117.237 72.8361 117.52 73.9519C117.804 75.0677 118.378 76.1482 119.31 76.8247C119.961 77.2973 120.744 77.5465 121.52 77.7585C122.954 78.1502 124.448 78.4425 125.921 78.2454C127.394 78.0483 128.855 77.2926 129.593 76.0023C129.917 75.4353 130.09 74.7888 130.136 74.1375C130.183 73.4837 130.072 72.7563 129.576 72.3276C129.159 71.9673 128.569 71.9003 128.018 71.8849C126.734 71.8491 125.453 72.0039 124.177 72.1588C123.648 72.2229 123.118 72.287 122.588 72.3514C122.461 72.3668 122.326 72.3814 122.208 72.3296C122.111 72.2867 122.038 72.2038 121.97 72.1224C121.346 71.3762 121.301 70.3004 120.948 69.3938" fill="#3D907E"/>
<path d="M116.974 71.0123C117.667 73.2019 117.311 76.0075 119.202 77.6679C120.119 78.4732 121.292 78.5482 122.456 78.4082C123.756 78.252 125.06 78.0479 126.343 77.7894C127.812 77.4937 129.254 77.0813 130.613 76.4437C130.817 76.3483 130.639 76.0464 130.436 76.1416C128.192 77.1947 125.724 77.5884 123.291 77.942C122.091 78.1167 120.747 78.3547 119.684 77.6055C118.851 77.018 118.376 76.0265 118.118 75.0673C117.751 73.7031 117.739 72.2706 117.311 70.9194C117.244 70.7052 116.906 70.7967 116.974 71.0123Z" fill="#1B1C1D"/>
<path d="M121.975 74.5728C122.255 73.8249 122.318 73.0141 122.173 72.2301C122.132 72.0088 121.795 72.1024 121.835 72.323C121.969 73.0465 121.895 73.7919 121.638 74.4799C121.558 74.691 121.897 74.7823 121.975 74.5728Z" fill="#1B1C1D"/>
<path d="M140.988 75.3014L125.528 75.9255L120.631 75.7807L124.094 82.7026C124.094 82.7026 133.642 83.8357 140.36 84.4814C148.46 85.2595 148.788 80.5172 147.455 77.4898C146.263 74.7803 140.988 75.3014 140.988 75.3014Z" fill="#F9AD8E"/>
<path d="M123.88 75.9239C129.493 76.1574 135.104 75.4031 140.717 75.4199C142.194 75.4241 143.674 75.4773 145.142 75.6497C145.365 75.6761 145.363 75.3258 145.142 75.2997C142.431 74.9816 139.684 75.0421 136.962 75.1474C134.063 75.2597 131.168 75.4624 128.268 75.561C126.806 75.6108 125.342 75.6346 123.88 75.5739C123.655 75.5646 123.655 75.9146 123.88 75.9239Z" fill="#F35C61"/>
<path d="M116.082 71.8358C115.851 71.5045 115.615 71.1649 115.507 70.7757C115.337 70.1647 115.535 69.3914 116.422 69.3205C116.608 69.306 116.796 69.3359 116.973 69.3975C117.4 69.5468 117.812 69.8083 118.062 70.1852C119.095 71.742 120.057 73.0305 121.091 74.4865C121.505 75.0698 122.156 75.4559 122.87 75.4948C123.14 75.5094 123.305 75.4727 123.305 75.4727C123.679 75.1784 123.535 74.456 123.398 73.9671C123.304 73.6309 123.156 73.3117 122.96 73.0227C122.56 72.4319 122.003 71.6972 122.176 70.9028C122.254 70.5422 122.506 70.2244 122.864 70.1356C123.374 70.0091 123.776 70.3868 124.11 70.7351C125.08 71.7453 126.051 72.7556 127.021 73.7655C127.844 74.6223 128.687 75.5116 129.106 76.6232C129.483 77.6234 129.483 78.7344 129.285 79.785C129.087 80.8353 132.054 80.6852 131.669 81.6823C131.49 82.1468 134.437 83.7039 133.992 83.9264C133.622 84.1115 127.229 83.7993 126.82 83.7377C125.154 83.4874 123.05 83.3015 121.536 82.5617C119.293 81.465 117.516 79.706 116.142 77.6209C115.894 77.244 115.646 76.8514 115.561 76.4085C115.475 75.9655 115.587 75.4553 115.949 75.1849C115.583 74.8183 115.213 74.4445 114.971 73.9873C114.728 73.5303 114.628 72.9695 114.83 72.4927C115.031 72.0161 115.589 71.6793 116.082 71.8358Z" fill="#F9AD8E"/>
<path d="M120 76.8438C118.56 75.3782 116.546 73.0517 115.358 70.9055L120 76.8438Z" fill="#F9AD8E"/>
<path d="M120.124 76.7197C118.383 74.9437 116.724 72.996 115.509 70.817C115.4 70.6202 115.097 70.7966 115.207 70.9937C116.436 73.1968 118.117 75.1713 119.876 76.9672C120.034 77.1282 120.281 76.8807 120.124 76.7197Z" fill="#F35C61"/>
<path d="M118.476 78.457C117.332 77.2472 116.208 75.7861 115.126 74.5236L118.476 78.457Z" fill="#F9AD8E"/>
<path d="M118.6 78.3313C117.418 77.0769 116.369 75.7065 115.25 74.3978C115.103 74.2265 114.856 74.4751 115.002 74.6453C116.122 75.9538 117.17 77.3244 118.352 78.5788C118.507 78.7431 118.754 78.4953 118.6 78.3313Z" fill="#F35C61"/>
<path d="M135.282 83.7903C132.139 83.8009 128.981 83.5859 125.861 83.2143C124.685 83.0743 123.495 82.9243 122.345 82.6328C120.998 82.2915 119.787 81.391 118.754 80.493C117.95 79.7933 117.217 79.0068 116.578 78.1536C116.062 77.4659 114.899 76.134 115.834 75.3875C115.908 75.3276 115.893 75.2021 115.834 75.14C115.407 74.6959 114.863 74.0161 114.757 73.3931C114.654 72.7857 114.988 71.6744 115.794 71.8786C115.933 71.9136 116.083 71.7523 115.992 71.6215C115.7 71.2015 115.361 70.7328 115.388 70.1957C115.418 69.5979 115.933 69.279 116.497 69.3888C117.001 69.4868 117.295 69.8967 117.564 70.2971C117.832 70.6981 118.11 71.0929 118.402 71.477C118.879 72.1034 119.391 72.7015 119.884 73.3152C120.462 74.0351 120.962 74.8367 121.758 75.3396C122.165 75.5967 122.817 75.9122 123.301 75.6784C123.919 75.3802 123.558 74.4722 123.399 74.0054C123.264 73.6073 123.13 73.2368 122.906 72.877C122.636 72.4447 122.306 72.0331 122.153 71.5397C122.007 71.0682 122.084 70.4046 122.614 70.2036C123.15 70 123.608 70.5894 123.934 70.9282C124.825 71.857 125.717 72.7855 126.609 73.7142C127.423 74.5621 128.261 75.4315 128.696 76.5436C128.778 76.7508 129.116 76.6607 129.034 76.4504C128.642 75.4508 127.962 74.6335 127.233 73.8607C126.395 72.9728 125.543 72.0989 124.697 71.2186C124.165 70.6645 123.373 69.4991 122.456 69.8877C121.557 70.2688 121.645 71.3866 122.013 72.1065C122.253 72.5769 122.607 72.9815 122.832 73.4603C123.018 73.8565 123.175 74.3378 123.261 74.7679C123.296 74.9415 123.351 75.2226 123.183 75.3469C123.079 75.4236 122.902 75.4057 122.784 75.3883C122.403 75.3318 122.042 75.1274 121.736 74.902C121.275 74.5629 120.947 74.1113 120.601 73.6635C120.29 73.262 119.972 72.8675 119.649 72.4752C119.049 71.7458 118.465 71.0097 117.936 70.2257C117.66 69.8149 117.382 69.3751 116.916 69.1586C116.526 68.9769 116.038 68.9629 115.651 69.1592C115.242 69.3664 115.037 69.8004 115.036 70.2464C115.034 70.8322 115.368 71.3359 115.69 71.7982C115.756 71.7125 115.822 71.6265 115.887 71.5409C115.02 71.3213 114.485 72.1658 114.398 72.9255C114.294 73.8447 114.982 74.7584 115.586 75.3875C115.586 75.3049 115.586 75.2223 115.586 75.14C114.884 75.7008 115.116 76.5344 115.519 77.2173C116.016 78.0595 116.638 78.8461 117.299 79.5651C117.952 80.2743 118.671 80.9214 119.447 81.4929C120.103 81.9762 120.822 82.4595 121.582 82.763C122.574 83.1586 123.709 83.2771 124.758 83.4224C126.368 83.6455 127.987 83.8001 129.608 83.9183C131.495 84.056 133.389 84.1467 135.282 84.1403C135.507 84.1397 135.508 83.7897 135.282 83.7903Z" fill="#F35C61"/>
<path d="M117.054 83.2041L103.462 72.8209L111.068 46.3765C104.941 47.578 102.106 46.8528 98.9425 54.4747C98.9425 54.4747 95.4825 65.4692 93.7342 71.4225C92.638 75.1544 93.4385 79.0506 98.0364 82.0082C100.142 83.3632 115.023 89.8438 115.023 89.8438L117.054 83.2041Z" fill="#F9AD8E"/>
<path d="M99.7368 74.2042C100.684 73.37 102.003 72.9993 103.247 73.2233C103.467 73.2628 103.561 72.9257 103.34 72.8856C101.966 72.6384 100.538 73.034 99.4896 73.9566C99.3202 74.1059 99.5683 74.3526 99.7368 74.2042Z" fill="#F35C61"/>
<path d="M129.764 84.3183C130.132 84.1514 130.508 83.9795 130.8 83.7001C131.092 83.4206 131.289 83.0082 131.205 82.6128C131.112 82.1701 130.687 81.8565 130.243 81.7669C129.8 81.6773 129.312 81.6913 128.904 81.8879C127.028 82.7926 126.091 83.1451 124.228 83.9848C122.868 84.5415 122.199 84.1665 122.017 83.6942C121.835 83.2221 122.084 82.6951 122.455 82.3502C122.825 82.0052 123.603 81.8269 124.056 81.6006C124.509 81.3744 124.665 81.0725 124.905 80.6268C125.144 80.181 124.709 79.8383 124.277 79.5745C123.918 79.355 122.234 79.1635 121.828 79.2758C120.478 79.649 120.603 79.7521 119.254 80.1253C118.109 80.4417 116.963 81.4553 116.035 82.1973C115.201 82.8648 114.72 83.4077 114.354 84.4121C113.987 85.4165 113.808 86.4771 113.63 87.5313C113.547 88.0221 113.474 88.5656 113.743 88.9845C113.966 89.3323 114.373 89.5078 114.756 89.6635C116.316 90.2986 117.907 90.9412 119.586 91.0775C122.075 91.28 124.513 90.3532 126.759 89.2614C127.165 89.0643 127.578 88.8535 127.878 88.5161C128.177 88.1787 128.342 87.6828 128.169 87.2659C128.67 87.1371 129.18 87.0049 129.621 86.7355C130.063 86.4665 130.435 86.035 130.506 85.5223C130.576 85.0099 130.268 84.4353 129.764 84.3183Z" fill="#F9AD8E"/>
<path d="M116.177 82.2348C117.275 81.3808 118.384 80.5195 119.643 79.9296C120.903 79.3396 122.343 79.0358 123.696 79.3544C124.302 79.4967 124.971 79.8934 124.973 80.515C124.975 81.0762 124.425 81.478 123.895 81.6619C123.365 81.8459 122.773 81.9268 122.348 82.2933C121.852 82.7214 121.755 83.6006 122.26 84.0178C122.821 84.4815 123.655 84.1676 124.315 83.8605C125.774 83.1806 127.285 82.6134 128.83 82.1648C129.192 82.0595 129.566 81.9601 129.941 81.9993C130.316 82.0385 130.781 82.057 131.062 82.6201C131.33 83.1552 130.8 83.6981 130.423 83.9828L129.671 84.367C127.554 85.606 126.23 86.1187 123.927 86.9609" fill="#F9AD8E"/>
<path d="M116.301 82.3619C118.244 80.8501 120.481 79.1573 123.094 79.4314C123.631 79.4877 124.329 79.6307 124.66 80.1087C125.051 80.6757 124.517 81.2035 124.014 81.4292C123.168 81.8089 122.021 81.838 121.785 82.9395C121.588 83.8565 122.3 84.5246 123.199 84.4143C123.689 84.3541 124.138 84.1359 124.581 83.9327C125.18 83.658 125.788 83.4029 126.403 83.1674C127.013 82.9342 127.629 82.72 128.252 82.5251C128.848 82.3386 129.452 82.1149 130.085 82.1925C130.646 82.2613 131.192 82.7116 130.832 83.3099C130.634 83.6406 130.348 83.8285 130.018 83.9971C129.117 84.4568 128.254 84.9813 127.338 85.4119C126.213 85.9403 125.046 86.3689 123.88 86.7954C123.67 86.8721 123.761 87.2106 123.973 87.1331C125.071 86.7313 126.17 86.3267 127.236 85.8428C128.174 85.4167 129.049 84.8844 129.964 84.4171C130.571 84.1071 131.461 83.588 131.294 82.7656C131.076 81.6873 129.707 81.7428 128.904 81.9645C127.572 82.3325 126.267 82.8155 125 83.3648C124.413 83.6193 123.819 83.9789 123.176 84.0645C122.476 84.1581 121.942 83.6571 122.144 82.9451C122.333 82.277 123.03 82.1079 123.617 81.9351C124.106 81.7915 124.601 81.5955 124.918 81.1741C125.56 80.3195 124.74 79.4955 123.926 79.2393C122.595 78.8204 121.086 79.1231 119.836 79.6565C118.443 80.2509 117.24 81.1915 116.054 82.1143C115.876 82.2524 116.125 82.4985 116.301 82.3619Z" fill="#F35C61"/>
<path d="M129.979 84.3913C130.088 84.5251 130.223 84.7634 130.288 84.9549C130.421 85.343 130.316 85.7011 130.089 86.0323C129.807 86.4442 129.37 86.5971 128.942 86.8289C127.494 87.6127 125.986 88.3667 124.4 88.8265C124.184 88.8892 124.276 89.2269 124.493 89.1641C125.389 88.9043 126.253 88.54 127.099 88.148C127.94 87.7577 128.786 87.3458 129.585 86.874C130.037 86.6077 130.376 86.3476 130.589 85.8352C130.835 85.2413 130.617 84.6234 130.227 84.1437C130.084 83.969 129.838 84.2179 129.979 84.3913Z" fill="#F35C61"/>
<path d="M103.513 73.1137C104.748 69.4572 105.982 65.8007 107.216 62.1442C107.289 61.9303 106.951 61.8384 106.879 62.0512C105.644 65.7078 104.41 69.3643 103.176 73.0208C103.103 73.2344 103.441 73.3263 103.513 73.1137Z" fill="#F35C61"/>
<path d="M102.467 48.9716L107.206 62.7969L111.656 60.0476L103.825 47.9247C103.825 47.9247 102.837 47.6662 102.467 48.9716Z" fill="white"/>
<path d="M84.2811 65.9981C87.1816 67.0951 90.7206 65.9813 92.6318 63.37C89.866 61.9865 86.2968 63.2051 84.2811 65.9981Z" fill="#3D907E"/>
<path d="M79.4178 24.6015L80.4639 25.1421C80.6568 25.2421 80.663 25.5154 80.4751 25.624L79.4553 26.2131C79.41 26.2395 79.373 26.2781 79.3489 26.3249L78.8081 27.371C78.7084 27.5639 78.4348 27.5703 78.3262 27.3821L77.7372 26.3624C77.711 26.317 77.6721 26.2801 77.6255 26.256L76.5795 25.7153C76.3865 25.6156 76.3802 25.3421 76.5682 25.2334L77.5878 24.6443C77.6333 24.618 77.6703 24.5793 77.6944 24.5326L78.2352 23.4865C78.3348 23.2936 78.6084 23.2874 78.717 23.4753L79.3061 24.4951C79.3324 24.5404 79.3711 24.5774 79.4178 24.6015Z" fill="white"/>
<path d="M63.5874 99.7876L64.0136 100.008C64.0922 100.049 64.0949 100.16 64.0182 100.204L63.6028 100.444C63.5842 100.455 63.5691 100.471 63.5593 100.49L63.339 100.916C63.2983 100.995 63.1868 100.997 63.1426 100.92L62.9026 100.505C62.8918 100.486 62.8761 100.471 62.8571 100.462L62.4307 100.241C62.3522 100.201 62.3496 100.089 62.4261 100.045L62.8416 99.805C62.8602 99.7943 62.8753 99.7784 62.8852 99.7593L63.1055 99.3332C63.1461 99.2545 63.2576 99.252 63.3018 99.3284L63.5419 99.7439C63.5526 99.7627 63.5683 99.7775 63.5874 99.7876Z" fill="white"/>
<path d="M164.368 57.2837L164.794 57.5041C164.873 57.5447 164.875 57.6561 164.799 57.7003L164.384 57.9403C164.365 57.9509 164.35 57.9669 164.34 57.9859L164.12 58.4121C164.079 58.4908 163.967 58.4933 163.923 58.4166L163.683 58.0013C163.673 57.9826 163.657 57.9675 163.638 57.9577L163.211 57.7373C163.133 57.6967 163.13 57.5853 163.207 57.541L163.622 57.3011C163.641 57.2904 163.656 57.2745 163.666 57.2554L163.886 56.8293C163.927 56.7506 164.038 56.7481 164.083 56.8248L164.322 57.2403C164.333 57.2588 164.349 57.2739 164.368 57.2837Z" fill="white"/>
<path d="M70.667 103.188L71.7131 103.728C71.9059 103.828 71.9123 104.102 71.7242 104.21L70.7046 104.799C70.6591 104.825 70.6222 104.864 70.5981 104.911L70.0574 105.957C69.9576 106.15 69.6841 106.156 69.5755 105.968L68.9865 104.949C68.9602 104.903 68.9214 104.866 68.8747 104.842L67.8287 104.301C67.6358 104.202 67.6295 103.928 67.8175 103.819L68.8371 103.23C68.8826 103.204 68.9195 103.165 68.9437 103.119L69.4843 102.073C69.5841 101.88 69.8576 101.873 69.9663 102.061L70.5552 103.081C70.5816 103.126 70.6203 103.163 70.667 103.188Z" fill="white"/>
<path d="M166.535 27.289L167.581 27.8299C167.774 27.9293 167.78 28.2029 167.592 28.3115L166.573 28.9007C166.527 28.927 166.49 28.9656 166.466 29.0124L165.925 30.0584C165.826 30.2514 165.552 30.2578 165.444 30.0697L164.854 29.0502C164.828 29.0045 164.789 28.9676 164.743 28.9435L163.697 28.4028C163.504 28.3031 163.498 28.0296 163.685 27.9209L164.705 27.3318C164.751 27.3055 164.787 27.2669 164.812 27.2201L165.353 26.174C165.452 25.9811 165.726 25.9749 165.834 26.1628L166.423 27.1823C166.45 27.2279 166.488 27.2649 166.535 27.289Z" fill="white"/>
<path d="M158.042 34.5676C155.269 30.0851 156.272 24.3328 160.174 21.0246C159.696 21.2296 159.227 21.4718 158.771 21.7535C153.833 24.8085 152.306 31.288 155.36 36.2264C158.415 41.1647 164.895 42.6918 169.833 39.637C170.289 39.3551 170.715 39.0434 171.112 38.7072C166.409 40.7215 160.815 39.0504 158.042 34.5676Z" fill="#CDD3B1"/>
<path d="M95.8711 21.8124L96.9172 22.3531C97.1101 22.4528 97.1166 22.7266 96.9284 22.8352L95.9089 23.4241C95.8635 23.4504 95.8263 23.4891 95.8022 23.5358L95.2615 24.5819C95.1619 24.7748 94.8883 24.7812 94.7797 24.5931L94.1905 23.5736C94.1645 23.528 94.1256 23.491 94.0788 23.4669L93.033 22.9262C92.8401 22.8266 92.8337 22.553 93.0215 22.4444L94.0413 21.8552C94.0867 21.8289 94.1239 21.79 94.148 21.7435L94.6887 20.6974C94.7883 20.5045 95.0619 20.4981 95.1705 20.6862L95.7594 21.7057C95.7857 21.7514 95.8246 21.7883 95.8711 21.8124Z" fill="#CDD3B1"/>
<path d="M164.172 50.0354L165.218 50.576C165.411 50.6757 165.418 50.9493 165.23 51.0579L164.21 51.6467C164.165 51.6731 164.128 51.712 164.103 51.7585L163.563 52.8045C163.463 52.9975 163.19 53.0039 163.081 52.8157L162.492 51.7963C162.465 51.7509 162.427 51.7137 162.38 51.6896L161.334 51.1489C161.141 51.0492 161.135 50.7757 161.323 50.667L162.343 50.0779C162.388 50.0519 162.425 50.013 162.449 49.9665L162.99 48.9204C163.09 48.7275 163.363 48.721 163.472 48.9089L164.061 49.9287C164.087 49.974 164.126 50.0113 164.172 50.0354Z" fill="#CDD3B1"/>
<path d="M176.655 81.4843L177.701 82.0252C177.894 82.1249 177.9 82.3985 177.712 82.5071L176.693 83.096C176.647 83.1223 176.61 83.1609 176.586 83.2077L176.045 84.2538C175.946 84.4467 175.672 84.4531 175.563 84.265L174.974 83.2455C174.948 83.1998 174.91 83.1629 174.863 83.1388L173.817 82.5981C173.624 82.4984 173.617 82.2249 173.805 82.1162L174.825 81.5271C174.871 81.5008 174.908 81.4622 174.932 81.4154L175.472 80.3693C175.572 80.1764 175.846 80.1702 175.954 80.3581L176.543 81.3779C176.57 81.4232 176.608 81.4602 176.655 81.4843Z" fill="#CDD3B1"/>
<path d="M66.3937 88.4806L67.4397 89.0213C67.6326 89.121 67.639 89.3945 67.4509 89.5032L66.4313 90.0923C66.3858 90.1186 66.3489 90.1573 66.3247 90.204L65.784 91.2498C65.6843 91.4427 65.4108 91.4492 65.3021 91.2613L64.7132 90.2415C64.6868 90.1962 64.6481 90.1592 64.6014 90.1349L63.5554 89.5942C63.3625 89.4945 63.3561 89.2209 63.5442 89.1123L64.5638 88.5235C64.6093 88.4971 64.6462 88.4582 64.6704 88.4117L65.2111 87.3657C65.3108 87.1727 65.5843 87.1663 65.6929 87.3545L66.2819 88.3739C66.3083 88.4196 66.347 88.4565 66.3937 88.4806Z" fill="#CDD3B1"/>
<path d="M74.9212 64.1799L75.9671 64.7206C76.1601 64.8202 76.1664 65.0938 75.9784 65.2024L74.9588 65.7913C74.9133 65.8176 74.8763 65.8565 74.8521 65.903L74.3115 66.9491C74.2118 67.142 73.9382 67.1484 73.8296 66.9603L73.2406 65.9408C73.2143 65.8952 73.1755 65.8582 73.1288 65.8341L72.0829 65.2934C71.8899 65.1938 71.8836 64.9202 72.0716 64.8116L73.0912 64.2224C73.1367 64.1961 73.1737 64.1575 73.1977 64.1107L73.7385 63.0646C73.8382 62.872 74.1118 62.8656 74.2204 63.0534L74.8094 64.0732C74.8356 64.1186 74.8745 64.1555 74.9212 64.1799Z" fill="#CDD3B1"/>
<path d="M91.2416 19.8446L91.6054 20.0328C91.6726 20.0672 91.6748 20.1624 91.6093 20.2002L91.2548 20.4052C91.2388 20.4141 91.226 20.4276 91.2176 20.4438L91.0297 20.8078C90.995 20.8748 90.8998 20.877 90.862 20.8117L90.6573 20.457C90.648 20.4413 90.6346 20.4284 90.6184 20.42L90.2546 20.2319C90.1874 20.1971 90.1852 20.1022 90.2507 20.0644L90.6052 19.8595C90.6212 19.8502 90.6338 19.8368 90.6422 19.8205L90.8303 19.4568C90.865 19.3896 90.9602 19.3877 90.998 19.4529L91.2027 19.8077C91.212 19.8233 91.2254 19.8362 91.2416 19.8446Z" fill="#CDD3B1"/>
<path d="M166.298 47.7157L166.661 47.9039C166.728 47.9383 166.731 48.0335 166.665 48.0713L166.311 48.2763C166.295 48.2852 166.282 48.2987 166.274 48.3149L166.086 48.6789C166.051 48.7458 165.956 48.7481 165.918 48.6828L165.713 48.3281C165.704 48.3124 165.691 48.2995 165.674 48.2911L165.311 48.103C165.243 48.0682 165.241 47.9733 165.307 47.9355L165.661 47.7306C165.677 47.7213 165.69 47.7079 165.698 47.6917L165.886 47.3279C165.921 47.2607 166.016 47.2588 166.054 47.324L166.259 47.6788C166.268 47.6945 166.281 47.7073 166.298 47.7157Z" fill="#CDD3B1"/>
<path d="M78.1048 48.5124C78.5047 45.5811 76.0443 42.579 73.0914 42.395C70.1385 42.2113 67.3248 44.8853 67.358 47.8435C66.5872 47.2424 65.0404 47.1133 64.1525 47.5224C63.2646 47.9312 62.1695 49.4656 63.0316 51.25H83.1498C83.5463 48.8708 79.8817 47.227 78.1048 48.5124Z" fill="#CDD3B1"/>
<path d="M83.697 38.1698C83.9338 36.4318 82.475 34.6519 80.7245 34.5427C78.9735 34.4338 77.3053 36.0191 77.325 37.7733C76.8679 37.4169 75.9508 37.3404 75.4244 37.5826C74.898 37.8254 74.2486 38.7351 74.7598 39.793H86.6882C86.9234 38.3823 84.7503 37.4076 83.697 38.1698Z" fill="#CDD3B1"/>
<path d="M176.177 102.392C176.414 100.654 174.955 98.8742 173.204 98.7653C171.453 98.6564 169.785 100.242 169.805 101.996C169.348 101.64 168.431 101.563 167.904 101.805C167.378 102.048 166.729 102.958 167.24 104.016H179.168C179.403 102.605 177.23 101.63 176.177 102.392Z" fill="#CDD3B1"/>
<path d="M169.77 63.0995C170.007 61.3613 168.548 59.5813 166.798 59.4724C165.047 59.3635 163.379 60.9488 163.398 62.7027C162.941 62.3463 162.024 62.2699 161.498 62.5123C160.971 62.7548 160.322 63.6645 160.833 64.7227L172.761 64.7224C172.997 63.3117 170.824 62.3373 169.77 63.0995Z" fill="#CDD3B1"/>
<path d="M137.277 12.4979C137.514 10.76 136.055 8.97974 134.304 8.87082C132.553 8.7619 130.885 10.3473 130.905 12.1015C130.448 11.745 129.531 11.6686 129.004 11.9108C128.478 12.1533 127.829 13.063 128.34 14.1211H140.268C140.503 12.7105 138.33 11.7358 137.277 12.4979Z" fill="#CDD3B1"/>
<path d="M91.2147 25.6034C91.4519 23.8654 89.9931 22.0852 88.2422 21.9763C86.4914 21.8674 84.8232 23.4527 84.8428 25.2069C84.3858 24.8505 83.4688 24.7738 82.9421 25.0162C82.4157 25.2587 81.7664 26.1687 82.2777 27.2266H94.206C94.4412 25.8159 92.2684 24.8412 91.2147 25.6034Z" fill="#DDE3C2"/>
</g>
<defs>
<clipPath id="clip0_141_6038">
<rect width="140" height="140" fill="white" transform="translate(51)"/>
</clipPath>
</defs>
</svg>
